<svg width="32" height="32" viewBox="0 0 32 32" fill="none" xmlns="http://www.w3.org/2000/svg">
<path d="M13.5 18.5C18.0563 18.5 21.75 14.8063 21.75 10.25C21.75 5.69365 18.0563 2 13.5 2C8.94365 2 5.25 5.69365 5.25 10.25C5.25 14.8063 8.94365 18.5 13.5 18.5Z" fill="url(#paint0_linear_353_14520)"/>
<path d="M13.5 18.5C18.0563 18.5 21.75 14.8063 21.75 10.25C21.75 5.69365 18.0563 2 13.5 2C8.94365 2 5.25 5.69365 5.25 10.25C5.25 14.8063 8.94365 18.5 13.5 18.5Z" fill="url(#paint1_radial_353_14520)" fill-opacity="0.2"/>
<path d="M13.5 18.5C18.0563 18.5 21.75 14.8063 21.75 10.25C21.75 5.69365 18.0563 2 13.5 2C8.94365 2 5.25 5.69365 5.25 10.25C5.25 14.8063 8.94365 18.5 13.5 18.5Z" fill="url(#paint2_radial_353_14520)" fill-opacity="0.31"/>
<path d="M13.5 18.5C18.0563 18.5 21.75 14.8063 21.75 10.25C21.75 5.69365 18.0563 2 13.5 2C8.94365 2 5.25 5.69365 5.25 10.25C5.25 14.8063 8.94365 18.5 13.5 18.5Z" fill="url(#paint3_radial_353_14520)" fill-opacity="0.7"/>
<path d="M20.93 24.14C24.8346 24.14 28 20.9747 28 17.07C28 13.1653 24.8346 10 20.93 10C17.0253 10 13.86 13.1653 13.86 17.07C13.86 20.9747 17.0253 24.14 20.93 24.14Z" fill="url(#paint4_linear_353_14520)"/>
<path d="M20.93 24.14C24.8346 24.14 28 20.9747 28 17.07C28 13.1653 24.8346 10 20.93 10C17.0253 10 13.86 13.1653 13.86 17.07C13.86 20.9747 17.0253 24.14 20.93 24.14Z" fill="url(#paint5_radial_353_14520)" fill-opacity="0.5"/>
<path d="M20.93 24.14C24.8346 24.14 28 20.9747 28 17.07C28 13.1653 24.8346 10 20.93 10C17.0253 10 13.86 13.1653 13.86 17.07C13.86 20.9747 17.0253 24.14 20.93 24.14Z" fill="url(#paint6_radial_353_14520)" fill-opacity="0.7"/>
<path d="M14.375 30C17.6197 30 20.25 27.3697 20.25 24.125C20.25 20.8803 17.6197 18.25 14.375 18.25C11.1303 18.25 8.5 20.8803 8.5 24.125C8.5 27.3697 11.1303 30 14.375 30Z" fill="url(#paint7_linear_353_14520)"/>
<path d="M14.375 30C17.6197 30 20.25 27.3697 20.25 24.125C20.25 20.8803 17.6197 18.25 14.375 18.25C11.1303 18.25 8.5 20.8803 8.5 24.125C8.5 27.3697 11.1303 30 14.375 30Z" fill="url(#paint8_linear_353_14520)" fill-opacity="0.32"/>
<path d="M11.25 14H4.75C3.23122 14 2 15.2312 2 16.75V23.25C2 24.7688 3.23122 26 4.75 26H11.25C12.7688 26 14 24.7688 14 23.25V16.75C14 15.2312 12.7688 14 11.25 14Z" fill="url(#paint9_radial_353_14520)"/>
<path d="M11.25 14H4.75C3.23122 14 2 15.2312 2 16.75V23.25C2 24.7688 3.23122 26 4.75 26H11.25C12.7688 26 14 24.7688 14 23.25V16.75C14 15.2312 12.7688 14 11.25 14Z" fill="url(#paint10_radial_353_14520)" fill-opacity="0.6"/>
<path d="M5.59387 21.9722L6.82637 21.3287C6.96533 21.6097 7.14658 21.8166 7.37012 21.9495C7.59668 22.0824 7.84439 22.1489 8.11325 22.1489C8.41231 22.1489 8.64038 22.0885 8.79747 21.9677C8.95455 21.8438 9.03309 21.658 9.03309 21.4103C9.03309 21.217 8.95757 21.0538 8.80653 20.9209C8.65549 20.785 8.38814 20.6823 8.0045 20.6128C7.27346 20.4799 6.74179 20.2473 6.4095 19.915C6.08023 19.5827 5.91559 19.1688 5.91559 18.6734C5.91559 18.0572 6.13309 17.5648 6.56809 17.1962C7.00309 16.8277 7.57705 16.6434 8.28997 16.6434C8.77028 16.6434 9.19319 16.7416 9.55872 16.938C9.92424 17.1343 10.2142 17.4153 10.4287 17.7808L9.2234 18.4016C9.09049 18.1961 8.947 18.0481 8.79293 17.9575C8.63887 17.8638 8.44554 17.817 8.21293 17.817C7.93502 17.817 7.72356 17.8774 7.57856 17.9983C7.43658 18.1191 7.36559 18.2762 7.36559 18.4695C7.36559 18.6357 7.43356 18.7822 7.5695 18.9091C7.70846 19.0329 7.98637 19.1341 8.40325 19.2127C9.10408 19.3456 9.62668 19.5872 9.97106 19.9377C10.3185 20.285 10.4922 20.7246 10.4922 21.2562C10.4922 21.9027 10.2852 22.4147 9.87137 22.7923C9.45752 23.1699 8.86694 23.3587 8.09965 23.3587C7.54382 23.3587 7.04236 23.2379 6.59528 22.9962C6.15122 22.7516 5.81741 22.4102 5.59387 21.9722Z" fill="white"/>
<defs>
<linearGradient id="paint0_linear_353_14520" x1="7.3125" y1="4.0625" x2="18.3125" y2="18.5" gradientUnits="userSpaceOnUse">
<stop stop-color="#00E3DF"/>
<stop offset="0.410156" stop-color="#0097A8"/>
<stop offset="1" stop-color="#007791"/>
</linearGradient>
<radialGradient id="paint1_radial_353_14520" cx="0" cy="0" r="1" gradientUnits="userSpaceOnUse" gradientTransform="translate(16.0244 20.7824) rotate(-112.448) scale(12.6679 22.7762)">
<stop offset="0.28573" stop-color="#003B5D"/>
<stop offset="0.612265" stop-color="#004A6C" stop-opacity="0.688298"/>
<stop offset="0.968041" stop-color="#006F94" stop-opacity="0"/>
</radialGradient>
<radialGradient id="paint2_radial_353_14520" cx="0" cy="0" r="1" gradientUnits="userSpaceOnUse" gradientTransform="translate(16.3156 17.1424) rotate(-112.063) scale(10.6919 19.2)">
<stop offset="0.259744" stop-color="#002A42"/>
<stop offset="0.612265" stop-color="#004261" stop-opacity="0.688298"/>
<stop offset="0.968041" stop-color="#006F94" stop-opacity="0"/>
</radialGradient>
<radialGradient id="paint3_radial_353_14520" cx="0" cy="0" r="1" gradientUnits="userSpaceOnUse" gradientTransform="translate(18.2084 2.8736) rotate(124.447) scale(8.94488)">
<stop stop-color="#78EDFF"/>
<stop offset="1" stop-color="#2CCFCA" stop-opacity="0"/>
</radialGradient>
<linearGradient id="paint4_linear_353_14520" x1="15.6275" y1="11.7675" x2="25.0542" y2="24.14" gradientUnits="userSpaceOnUse">
<stop stop-color="#00E3DF"/>
<stop offset="0.476427" stop-color="#00A2B8"/>
<stop offset="0.945063" stop-color="#00637C"/>
</linearGradient>
<radialGradient id="paint5_radial_353_14520" cx="0" cy="0" r="1" gradientUnits="userSpaceOnUse" gradientTransform="translate(16.8795 22.9617) rotate(-70.8012) scale(8.7341 15.7369)">
<stop stop-color="#003B5D"/>
<stop offset="0.492035" stop-color="#004C6C" stop-opacity="0.72"/>
<stop offset="0.968041" stop-color="#007A86" stop-opacity="0"/>
</radialGradient>
<radialGradient id="paint6_radial_353_14520" cx="0" cy="0" r="1" gradientUnits="userSpaceOnUse" gradientTransform="translate(24.9649 10.7486) rotate(124.447) scale(7.66549)">
<stop stop-color="#78EDFF"/>
<stop offset="1" stop-color="#2CCFCA" stop-opacity="0"/>
</radialGradient>
<linearGradient id="paint7_linear_353_14520" x1="10.2625" y1="18.8375" x2="16.1375" y2="30.5875" gradientUnits="userSpaceOnUse">
<stop offset="0.0534989" stop-color="#75FFF6"/>
<stop offset="0.51144" stop-color="#00C7D1"/>
<stop offset="0.96002" stop-color="#0096AD"/>
</linearGradient>
<linearGradient id="paint8_linear_353_14520" x1="20.223" y1="30.0006" x2="17.0836" y2="25.5943" gradientUnits="userSpaceOnUse">
<stop offset="0.259744" stop-color="#0E5A5D"/>
<stop offset="0.535716" stop-color="#126C6B" stop-opacity="0.688298"/>
<stop offset="0.968041" stop-color="#1C948A" stop-opacity="0"/>
</linearGradient>
<radialGradient id="paint9_radial_353_14520" cx="0" cy="0" r="1" gradientUnits="userSpaceOnUse" gradientTransform="translate(2 14) rotate(45) scale(16.9706)">
<stop offset="0.0625" stop-color="#00B6BD"/>
<stop offset="0.890131" stop-color="#00495C"/>
</radialGradient>
<radialGradient id="paint10_radial_353_14520" cx="0" cy="0" r="1" gradientUnits="userSpaceOnUse" gradientTransform="translate(8 21.2) rotate(90) scale(8.4 9.5625)">
<stop offset="0.566964" stop-color="#1E8581" stop-opacity="0"/>
<stop offset="0.973806" stop-color="#1ECBE6"/>
</radialGradient>
</defs>
</svg>
