<svg width="16" height="16" viewBox="0 0 16 16" fill="none" xmlns="http://www.w3.org/2000/svg">
<path d="M4.64474 4.55072C2.35147 4.55077 0.637288 6.42797 0.50824 8.51918C0.588126 8.96978 0.850698 9.85956 1.26189 9.81387C1.77588 9.75676 3.07037 9.81387 4.17449 7.81502C4.98105 6.35486 6.64021 4.55068 4.64474 4.55072Z" fill="url(#paint0_radial_372_14925)"/>
<path d="M4.11505 5.33072C3.3442 6.5512 2.30656 8.3 1.95636 8.85033C1.54007 9.50449 0.437615 9.22659 0.528946 8.28893C0.519943 8.36506 0.513027 8.44179 0.50826 8.51905C0.357444 10.9585 2.29162 12.9844 4.69845 12.9844C7.35113 12.9844 13.6775 9.6793 13.0372 6.36772C12.3625 4.42111 10.4658 3.0249 8.31632 3.0249C6.16683 3.0249 4.78924 4.26327 4.11505 5.33072Z" fill="url(#paint1_radial_372_14925)"/>
<path d="M4.11505 5.33072C3.3442 6.5512 2.30656 8.3 1.95636 8.85033C1.54007 9.50449 0.437615 9.22659 0.528946 8.28893C0.519943 8.36506 0.513027 8.44179 0.50826 8.51905C0.357444 10.9585 2.29162 12.9844 4.69845 12.9844C7.35113 12.9844 13.6775 9.6793 13.0372 6.36772C12.3625 4.42111 10.4658 3.0249 8.31632 3.0249C6.16683 3.0249 4.78924 4.26327 4.11505 5.33072Z" fill="url(#paint2_radial_372_14925)" fill-opacity="0.4"/>
<path d="M4.11505 5.33072C3.3442 6.5512 2.30656 8.3 1.95636 8.85033C1.54007 9.50449 0.437615 9.22659 0.528946 8.28893C0.519943 8.36506 0.513027 8.44179 0.50826 8.51905C0.357444 10.9585 2.29162 12.9844 4.69845 12.9844C7.35113 12.9844 13.6775 9.6793 13.0372 6.36772C12.3625 4.42111 10.4658 3.0249 8.31632 3.0249C6.16683 3.0249 4.78924 4.26327 4.11505 5.33072Z" fill="url(#paint3_radial_372_14925)"/>
<path d="M4.11505 5.33072C3.3442 6.5512 2.30656 8.3 1.95636 8.85033C1.54007 9.50449 0.437615 9.22659 0.528946 8.28893C0.519943 8.36506 0.513027 8.44179 0.50826 8.51905C0.357444 10.9585 2.29162 12.9844 4.69845 12.9844C7.35113 12.9844 13.6775 9.6793 13.0372 6.36772C12.3625 4.42111 10.4658 3.0249 8.31632 3.0249C6.16683 3.0249 4.78924 4.26327 4.11505 5.33072Z" fill="url(#paint4_radial_372_14925)" fill-opacity="0.6"/>
<path d="M4.11505 5.33072C3.3442 6.5512 2.30656 8.3 1.95636 8.85033C1.54007 9.50449 0.437615 9.22659 0.528946 8.28893C0.519943 8.36506 0.513027 8.44179 0.50826 8.51905C0.357444 10.9585 2.29162 12.9844 4.69845 12.9844C7.35113 12.9844 13.6775 9.6793 13.0372 6.36772C12.3625 4.42111 10.4658 3.0249 8.31632 3.0249C6.16683 3.0249 4.78924 4.26327 4.11505 5.33072Z" fill="url(#paint5_radial_372_14925)" fill-opacity="0.9"/>
<path d="M4.65972 12.9859C4.65972 12.9859 10.9935 12.9983 12.0679 12.9983C14.0176 12.9983 15.5 11.4066 15.5 9.54917C15.5 7.69177 13.9878 6.10963 12.0679 6.10963C10.148 6.10963 9.04233 7.54598 8.21189 9.11384C7.23878 10.9511 5.99745 12.9638 4.65972 12.9859Z" fill="url(#paint6_linear_372_14925)"/>
<path d="M4.65972 12.9859C4.65972 12.9859 10.9935 12.9983 12.0679 12.9983C14.0176 12.9983 15.5 11.4066 15.5 9.54917C15.5 7.69177 13.9878 6.10963 12.0679 6.10963C10.148 6.10963 9.04233 7.54598 8.21189 9.11384C7.23878 10.9511 5.99745 12.9638 4.65972 12.9859Z" fill="url(#paint7_radial_372_14925)" fill-opacity="0.4"/>
<path d="M4.65972 12.9859C4.65972 12.9859 10.9935 12.9983 12.0679 12.9983C14.0176 12.9983 15.5 11.4066 15.5 9.54917C15.5 7.69177 13.9878 6.10963 12.0679 6.10963C10.148 6.10963 9.04233 7.54598 8.21189 9.11384C7.23878 10.9511 5.99745 12.9638 4.65972 12.9859Z" fill="url(#paint8_radial_372_14925)" fill-opacity="0.9"/>
<defs>
<radialGradient id="paint0_radial_372_14925" cx="0" cy="0" r="1" gradientTransform="matrix(3.02928 3.62975 -5.05963 6.17607 0.79265 5.09881)" gradientUnits="userSpaceOnUse">
<stop stop-color="#4894FE"/>
<stop offset="0.695072" stop-color="#0934B3"/>
</radialGradient>
<radialGradient id="paint1_radial_372_14925" cx="0" cy="0" r="1" gradientTransform="matrix(-13.3169 15.3609 -11.7371 -9.45902 13.4851 -0.345042)" gradientUnits="userSpaceOnUse">
<stop offset="0.165327" stop-color="#23C0FE"/>
<stop offset="0.534" stop-color="#1C91FF"/>
</radialGradient>
<radialGradient id="paint2_radial_372_14925" cx="0" cy="0" r="1" gradientTransform="matrix(-3.16561 -2.65755 -5.9215 7.38291 3.86102 5.36736)" gradientUnits="userSpaceOnUse">
<stop stop-color="white"/>
<stop offset="0.660528" stop-color="#ADC0FF" stop-opacity="0"/>
</radialGradient>
<radialGradient id="paint3_radial_372_14925" cx="0" cy="0" r="1" gradientUnits="userSpaceOnUse" gradientTransform="translate(8.3554 10.2526) rotate(-139.764) scale(4.65875 7.07533)">
<stop stop-color="#033ACC"/>
<stop offset="1" stop-color="#368EFF" stop-opacity="0"/>
</radialGradient>
<radialGradient id="paint4_radial_372_14925" cx="0" cy="0" r="1" gradientTransform="matrix(4.06449 9.37958 -10.1262 4.38702 3.58744 2.70981)" gradientUnits="userSpaceOnUse">
<stop offset="0.592618" stop-color="#3464E3" stop-opacity="0"/>
<stop offset="1" stop-color="#033ACC"/>
</radialGradient>
<radialGradient id="paint5_radial_372_14925" cx="0" cy="0" r="1" gradientUnits="userSpaceOnUse" gradientTransform="translate(13.3212 0.716646) rotate(135) scale(15.0368 23.5576)">
<stop stop-color="#4BFDE8"/>
<stop offset="0.543937" stop-color="#4BFDE8" stop-opacity="0"/>
</radialGradient>
<linearGradient id="paint6_linear_372_14925" x1="10.0832" y1="12.9914" x2="10.0832" y2="6.19134" gradientUnits="userSpaceOnUse">
<stop stop-color="#0086FF"/>
<stop offset="0.49" stop-color="#00BBFF"/>
</linearGradient>
<radialGradient id="paint7_radial_372_14925" cx="0" cy="0" r="1" gradientTransform="matrix(6.33383 2.51188 -8.0256 10.6978 6.52984 6.91979)" gradientUnits="userSpaceOnUse">
<stop stop-color="white"/>
<stop offset="0.785262" stop-color="white" stop-opacity="0"/>
</radialGradient>
<radialGradient id="paint8_radial_372_14925" cx="0" cy="0" r="1" gradientTransform="matrix(-7.07601 6.09859 -8.38794 -5.14472 15.2881 5.57571)" gradientUnits="userSpaceOnUse">
<stop stop-color="#4BFDE8"/>
<stop offset="0.584724" stop-color="#4BFDE8" stop-opacity="0"/>
</radialGradient>
</defs>
</svg>
