<svg width="32" height="32" viewBox="0 0 32 32" fill="none" xmlns="http://www.w3.org/2000/svg">
<path d="M9.29079 9.10022C4.70421 9.10032 1.2758 12.8549 1.0177 17.0374C1.17748 17.9386 1.70262 19.7183 2.52502 19.6269C3.553 19.5127 6.14201 19.6269 8.35029 15.629C9.96344 12.7086 13.2818 9.10013 9.29079 9.10022Z" fill="url(#paint0_radial_353_13991)"/>
<path d="M8.23018 10.6612C6.68846 13.1023 4.61317 16.6 3.91275 17.7007C3.08017 19.0091 0.875229 18.4532 1.05789 16.5779C1.03989 16.7301 1.02606 16.8836 1.01652 17.0381C0.714885 21.9172 4.58327 25.9692 9.39699 25.9692C14.7024 25.9692 27.3553 19.3587 26.0748 12.7353C24.7252 8.84196 20.9318 6.04944 16.6328 6.04944C12.3338 6.04944 9.57858 8.52625 8.23018 10.6612Z" fill="url(#paint1_radial_353_13991)"/>
<path d="M8.23018 10.6612C6.68846 13.1023 4.61317 16.6 3.91275 17.7007C3.08017 19.0091 0.875229 18.4532 1.05789 16.5779C1.03989 16.7301 1.02606 16.8836 1.01652 17.0381C0.714885 21.9172 4.58327 25.9692 9.39699 25.9692C14.7024 25.9692 27.3553 19.3587 26.0748 12.7353C24.7252 8.84196 20.9318 6.04944 16.6328 6.04944C12.3338 6.04944 9.57858 8.52625 8.23018 10.6612Z" fill="url(#paint2_radial_353_13991)" fill-opacity="0.4"/>
<path d="M8.23018 10.6612C6.68846 13.1023 4.61317 16.6 3.91275 17.7007C3.08017 19.0091 0.875229 18.4532 1.05789 16.5779C1.03989 16.7301 1.02606 16.8836 1.01652 17.0381C0.714885 21.9172 4.58327 25.9692 9.39699 25.9692C14.7024 25.9692 27.3553 19.3587 26.0748 12.7353C24.7252 8.84196 20.9318 6.04944 16.6328 6.04944C12.3338 6.04944 9.57858 8.52625 8.23018 10.6612Z" fill="url(#paint3_radial_353_13991)"/>
<path d="M8.23018 10.6612C6.68846 13.1023 4.61317 16.6 3.91275 17.7007C3.08017 19.0091 0.875229 18.4532 1.05789 16.5779C1.03989 16.7301 1.02606 16.8836 1.01652 17.0381C0.714885 21.9172 4.58327 25.9692 9.39699 25.9692C14.7024 25.9692 27.3553 19.3587 26.0748 12.7353C24.7252 8.84196 20.9318 6.04944 16.6328 6.04944C12.3338 6.04944 9.57858 8.52625 8.23018 10.6612Z" fill="url(#paint4_radial_353_13991)" fill-opacity="0.6"/>
<path d="M8.23018 10.6612C6.68846 13.1023 4.61317 16.6 3.91275 17.7007C3.08017 19.0091 0.875229 18.4532 1.05789 16.5779C1.03989 16.7301 1.02606 16.8836 1.01652 17.0381C0.714885 21.9172 4.58327 25.9692 9.39699 25.9692C14.7024 25.9692 27.3553 19.3587 26.0748 12.7353C24.7252 8.84196 20.9318 6.04944 16.6328 6.04944C12.3338 6.04944 9.57858 8.52625 8.23018 10.6612Z" fill="url(#paint5_radial_353_13991)" fill-opacity="0.9"/>
<path d="M9.31821 25.9704C9.31821 25.9704 21.986 25.9953 24.1347 25.9953C28.0341 25.9953 30.999 22.8116 30.999 19.0967C30.9991 15.3818 27.9747 12.2174 24.1347 12.2174C20.2948 12.2174 18.0835 15.0902 16.4226 18.226C14.4764 21.9006 11.9937 25.9263 9.31821 25.9704Z" fill="url(#paint6_linear_353_13991)"/>
<path d="M9.31821 25.9704C9.31821 25.9704 21.986 25.9953 24.1347 25.9953C28.0341 25.9953 30.999 22.8116 30.999 19.0967C30.9991 15.3818 27.9747 12.2174 24.1347 12.2174C20.2948 12.2174 18.0835 15.0902 16.4226 18.226C14.4764 21.9006 11.9937 25.9263 9.31821 25.9704Z" fill="url(#paint7_radial_353_13991)" fill-opacity="0.4"/>
<path d="M9.31821 25.9704C9.31821 25.9704 21.986 25.9953 24.1347 25.9953C28.0341 25.9953 30.999 22.8116 30.999 19.0967C30.9991 15.3818 27.9747 12.2174 24.1347 12.2174C20.2948 12.2174 18.0835 15.0902 16.4226 18.226C14.4764 21.9006 11.9937 25.9263 9.31821 25.9704Z" fill="url(#paint8_radial_353_13991)" fill-opacity="0.9"/>
<defs>
<radialGradient id="paint0_radial_353_13991" cx="0" cy="0" r="1" gradientUnits="userSpaceOnUse" gradientTransform="translate(1.58653 10.1964) rotate(50.1533) scale(9.45574 15.684)">
<stop stop-color="#4894FE"/>
<stop offset="0.695072" stop-color="#0934B3"/>
</radialGradient>
<radialGradient id="paint1_radial_353_13991" cx="0" cy="0" r="1" gradientUnits="userSpaceOnUse" gradientTransform="translate(26.9705 -0.690683) rotate(130.923) scale(40.6605 30.1297)">
<stop offset="0.165327" stop-color="#23C0FE"/>
<stop offset="0.534" stop-color="#1C91FF"/>
</radialGradient>
<radialGradient id="paint2_radial_353_13991" cx="0" cy="0" r="1" gradientUnits="userSpaceOnUse" gradientTransform="translate(7.72211 10.7345) rotate(-139.986) scale(8.26664 18.9242)">
<stop stop-color="white"/>
<stop offset="0.660528" stop-color="#ADC0FF" stop-opacity="0"/>
</radialGradient>
<radialGradient id="paint3_radial_353_13991" cx="0" cy="0" r="1" gradientUnits="userSpaceOnUse" gradientTransform="translate(16.711 20.5052) rotate(-139.763) scale(9.31769 14.151)">
<stop stop-color="#033ACC"/>
<stop offset="1" stop-color="#368EFF" stop-opacity="0"/>
</radialGradient>
<radialGradient id="paint4_radial_353_13991" cx="0" cy="0" r="1" gradientUnits="userSpaceOnUse" gradientTransform="translate(7.17496 5.41923) rotate(66.5718) scale(20.4453 22.0716)">
<stop offset="0.592618" stop-color="#3464E3" stop-opacity="0"/>
<stop offset="1" stop-color="#033ACC"/>
</radialGradient>
<radialGradient id="paint5_radial_353_13991" cx="0" cy="0" r="1" gradientUnits="userSpaceOnUse" gradientTransform="translate(26.6427 1.43277) rotate(134.999) scale(30.0743 47.1163)">
<stop stop-color="#4BFDE8"/>
<stop offset="0.543937" stop-color="#4BFDE8" stop-opacity="0"/>
</radialGradient>
<linearGradient id="paint6_linear_353_13991" x1="20.1654" y1="25.9814" x2="20.1654" y2="12.3808" gradientUnits="userSpaceOnUse">
<stop stop-color="#0086FF"/>
<stop offset="0.49" stop-color="#00BBFF"/>
</linearGradient>
<radialGradient id="paint7_radial_353_13991" cx="0" cy="0" r="1" gradientUnits="userSpaceOnUse" gradientTransform="translate(13.0585 13.8378) rotate(21.6328) scale(13.6277 25.8067)">
<stop stop-color="white"/>
<stop offset="0.785262" stop-color="white" stop-opacity="0"/>
</radialGradient>
<radialGradient id="paint8_radial_353_13991" cx="0" cy="0" r="1" gradientUnits="userSpaceOnUse" gradientTransform="translate(30.5752 11.1495) rotate(139.242) scale(18.6833 18.7467)">
<stop stop-color="#4BFDE8"/>
<stop offset="0.584724" stop-color="#4BFDE8" stop-opacity="0"/>
</radialGradient>
</defs>
</svg>
