<svg width="16" height="16" viewBox="0 0 16 16" fill="none" xmlns="http://www.w3.org/2000/svg">
<path d="M4 0C6.20914 0 8 1.79086 8 4L8 9H0V4C0 1.79086 1.79086 0 4 0Z" fill="#0472D8"/>
<path d="M12 0C9.79086 0 8 1.79086 8 4L8 9H16V4C16 1.79086 14.2091 0 12 0Z" fill="#2596FF"/>
<path d="M12 7C12 4.79086 10.2091 3 8 3C5.79086 3 4 4.79086 4 7C4 9.20914 5.79086 11 8 11C10.2091 11 12 9.20914 12 7Z" fill="#56C5FF"/>
<path d="M16 3.99989C16 3.94678 15.999 3.89392 15.9969 3.84131C15.8803 6.3882 13.3617 7.99989 11 7.99989C8.79086 7.99989 7 9.79075 7 11.9999C7 14.209 8.79086 15.9999 11 15.9999C14.2892 15.9999 16 13.3288 16 10.2499V3.99989Z" fill="#0472D8"/>
<path d="M0 10.2499C0 13.3288 1.71076 15.9999 5 15.9999C7.20914 15.9999 9 14.209 9 11.9999C9 9.79075 7.20914 7.99989 5 7.99989C2.63832 7.99989 0.119666 6.3882 0.00308589 3.84131C0.00103499 3.89392 0 3.94678 0 3.99989V10.2499Z" fill="#0C4497"/>
</svg>
