<svg xmlns="http://www.w3.org/2000/svg" viewBox="0 0 32 32"><title>Forms_32x</title><path d="M9,16V26.833A1.166,1.166,0,0,0,10.167,28H28.833A1.166,1.166,0,0,0,30,26.833V16L19,12Z" fill="#036c70"/><path d="M28.833,4H10.167A1.166,1.166,0,0,0,9,5.167V16H30V5.167A1.166,1.166,0,0,0,28.833,4Z" fill="#37c6d0"/><rect width="32" height="32" fill="none"/><path d="M16,10H9V24h6.833A1.17,1.17,0,0,0,17,22.833V11A1,1,0,0,0,16,10Z" opacity="0.5"/><rect x="2" y="9" width="14" height="14" rx="1.167" fill="#038387"/><rect x="21" y="19" width="6" height="6" fill="#1a9ba1"/><circle cx="24" cy="10" r="4" fill="#1a9ba1"/><circle cx="24" cy="10" r="2" fill="#036c70"/><path d="M11.834,13.047H8.043v2.387h3.534V16.85H8.043v3.528H6.328V11.625h5.506Z" fill="#fff"/></svg>