<svg xmlns="http://www.w3.org/2000/svg" viewBox="0 0 16 16"><title>Forms_16x</title><path d="M3,8v7a1,1,0,0,0,1,1H15a1,1,0,0,0,1-1V8L10,6Z" fill="#036c70"/><path d="M16,8V1a1,1,0,0,0-1-1H4A1,1,0,0,0,3,1V8Z" fill="#37c6d0"/><rect x="10" y="10" width="4" height="4" fill="#1a9ba1"/><circle cx="12" cy="4" r="3" fill="#1a9ba1"/><circle cx="12" cy="4" r="2" fill="#036c70"/><path d="M10,4,3,4,3,14H9a2,2,0,0,0,2-2V5A1,1,0,0,0,10,4Z" opacity="0.5"/><rect y="3" width="10" height="10" rx="1" fill="#038387"/><rect width="16" height="16" fill="none"/><path d="M7.088,5.975H4.49V7.611H6.913v.971H4.49V11H3.314V5H7.088Z" fill="#fff"/></svg>