<svg width="16" height="16" viewBox="0 0 16 16" fill="none" xmlns="http://www.w3.org/2000/svg">
<g clip-path="url(#clip0_347_6929)">
<path d="M3 10V14C3 15.104 5.91 16 9.5 16C13.09 16 16 15.104 16 14V10H3Z" fill="#881421"/>
<path d="M3 6V10C3 11.104 5.91 12 9.5 12C13.09 12 16 11.104 16 10V6H3Z" fill="#AF2031"/>
<path d="M3 2V6C3 7.104 5.91 8 9.5 8C13.09 8 16 7.104 16 6V2H3Z" fill="#C94F60"/>
<path d="M9.5 4C13.0899 4 16 3.10457 16 2C16 0.89543 13.0899 0 9.5 0C5.91015 0 3 0.89543 3 2C3 3.10457 5.91015 4 9.5 4Z" fill="#E08095"/>
<path opacity="0.5" d="M10 4.003L3 4L3.002 14H9C9.53043 14 10.0391 13.7893 10.4142 13.4142C10.7893 13.0391 11 12.5304 11 12V5.003C11 4.73778 10.8946 4.48343 10.7071 4.29589C10.5196 4.10836 10.2652 4.003 10 4.003Z" fill="black"/>
<path d="M9 3H1C0.447715 3 0 3.44772 0 4V12C0 12.5523 0.447715 13 1 13H9C9.55229 13 10 12.5523 10 12V4C10 3.44772 9.55229 3 9 3Z" fill="#AF2031"/>
<path d="M4.337 5H5.697L7.881 11H6.596L6.116 9.569H3.867L3.395 11H2.12L4.337 5ZM5.827 8.644L5.127 6.473C5.06936 6.3138 5.02586 6.14983 4.997 5.983H4.973C4.94672 6.15389 4.90454 6.32196 4.847 6.485L4.14 8.645L5.827 8.644Z" fill="white"/>
</g>
<defs>
<clipPath id="clip0_347_6929">
<rect width="16" height="16" fill="white"/>
</clipPath>
</defs>
</svg>
