<svg width="24" height="24" viewBox="0 0 24 24" fill="none" xmlns="http://www.w3.org/2000/svg">
<path d="M22.973 20.3V15.667H7V20.5C7 21.881 10.582 23 15 23C19.418 23 23 21.881 23 20.5C22.9995 20.4325 22.9904 20.3653 22.973 20.3Z" fill="#881421"/>
<path d="M22.973 15.3V9.66699H7V15.667H7.018C7.292 16.97 10.761 18 15 18C19.418 18 23 16.881 23 15.5C22.9995 15.4325 22.9904 15.3653 22.973 15.3Z" fill="#AF2031"/>
<path d="M22.973 9.29999V3.66699H7V9.66699H7.018C7.292 10.97 10.761 12 15 12C19.418 12 23 10.881 23 9.49999C22.9995 9.43245 22.9904 9.36525 22.973 9.29999Z" fill="#C94F60"/>
<path opacity="0.5" d="M13 7H7V19H12.533C12.9217 18.9989 13.2943 18.844 13.5692 18.5692C13.844 18.2943 13.9989 17.9217 14 17.533V8C14 7.73478 13.8946 7.48043 13.7071 7.29289C13.5196 7.10536 13.2652 7 13 7Z" fill="black"/>
<path d="M2.11 6H11.89C12.0358 6 12.1801 6.02871 12.3148 6.08449C12.4494 6.14028 12.5718 6.22204 12.6749 6.32511C12.778 6.42818 12.8597 6.55055 12.9155 6.68522C12.9713 6.81989 13 6.96423 13 7.11V17C13 17.2652 12.8946 17.5196 12.7071 17.7071C12.5196 17.8946 12.2652 18 12 18H2.11C1.81561 18 1.53328 17.8831 1.32511 17.6749C1.11695 17.4667 1 17.1844 1 16.89V7.11C1 6.81561 1.11695 6.53328 1.32511 6.32511C1.53328 6.11695 1.81561 6 2.11 6Z" fill="#AF2031"/>
<path d="M6.189 8.33398H7.851L10.521 15.667H8.951L8.363 13.918H5.617L5.039 15.667H3.479L6.189 8.33398ZM8.01 12.788L7.156 10.134C7.08702 9.93913 7.03483 9.73873 7 9.53498H6.97C6.93788 9.74399 6.88632 9.94955 6.816 10.149L5.952 12.788H8.01Z" fill="white"/>
<path d="M15 6C19.4183 6 23 4.88071 23 3.5C23 2.11929 19.4183 1 15 1C10.5817 1 7 2.11929 7 3.5C7 4.88071 10.5817 6 15 6Z" fill="#E08095"/>
</svg>
