<svg width="32" height="32" viewBox="0 0 32 32" fill="none" xmlns="http://www.w3.org/2000/svg">
<path d="M9 19.5V25.5C9 27.433 13.7 29 19.5 29C25.3 29 30 27.433 30 25.5V19.5H9Z" fill="#881421"/>
<path d="M9 13.5V19.5C9 21.433 13.7 23 19.5 23C25.3 23 30 21.433 30 19.5V13.5H9Z" fill="#AF2031"/>
<path d="M30 13.5V6.5H9V13.5C9 15.433 13.7 17 19.5 17C25.3 17 30 15.433 30 13.5Z" fill="#C94F60"/>
<path d="M19.5 10C25.299 10 30 8.433 30 6.5C30 4.567 25.299 3 19.5 3C13.701 3 9 4.567 9 6.5C9 8.433 13.701 10 19.5 10Z" fill="#E08095"/>
<path opacity="0.5" d="M16 10H9V24H15.833C16.1423 23.9992 16.4386 23.876 16.6573 23.6573C16.876 23.4386 16.9992 23.1423 17 22.833V11C17 10.7348 16.8946 10.4804 16.7071 10.2929C16.5196 10.1054 16.2652 10 16 10Z" fill="black"/>
<path d="M14.833 9H3.167C2.52248 9 2 9.52248 2 10.167V21.833C2 22.4775 2.52248 23 3.167 23H14.833C15.4775 23 16 22.4775 16 21.833V10.167C16 9.52248 15.4775 9 14.833 9Z" fill="#AF2031"/>
<path d="M8.033 11.625H10.016L13.201 20.375H11.328L10.628 18.288H7.349L6.66 20.375H4.8L8.033 11.625ZM10.205 16.94L9.186 13.773C9.10285 13.541 9.0406 13.3021 9 13.059H8.96C8.92229 13.3082 8.86102 13.5533 8.777 13.791L7.746 16.94H10.205Z" fill="white"/>
</svg>
