<svg xmlns="http://www.w3.org/2000/svg" viewBox="0 0 16 16"><rect x="8" y="4" width="8" height="8" rx="1" fill="#2b7cd3"/><rect x="5.88" y=".88" width="6.24" height="6.24" rx=".996" transform="rotate(-44.999 9 4)" fill="#41a5ee"/><circle cx="9" cy="12" r="4" fill="#103f91"/><path fill="none" d="M0 0h16v16H0z"/><path fill="none" d="M0 0h16v16H0z"/><path d="M10 4H5a.991.991 0 0 0 .292.7L8 7.413v.713A4 4 0 0 0 5.535 14H9a2 2 0 0 0 2-2V5a1 1 0 0 0-1-1z" opacity=".5"/><rect y="3" width="10" height="10" rx="1" fill="#185abd"/><path d="M4.7 8.971q.255.749.3.945h.021q.046-.2.326-1.012L6.688 5h1.235l-2.277 6H4.324L2.077 5h1.272z" fill="#fff"/></svg>