<svg xmlns="http://www.w3.org/2000/svg" viewBox="0 0 32 32"><rect x="15" y="9" width="15" height="13" rx="1.17" fill="#2b7cd3"/><path d="M22.66 10.33l-5.33 5.33a1.19 1.19 0 0 1-.33.22 1.115 1.115 0 0 1-.5.12 1.208 1.208 0 0 1-.83-.34l-5.33-5.33a1.215 1.215 0 0 1 0-1.66l5.33-5.33a1.189 1.189 0 0 1 1.66 0l5.33 5.33a1.215 1.215 0 0 1 0 1.66z" fill="#41a5ee"/><path d="M23 22.5A6.5 6.5 0 0 1 10.18 24a6.162 6.162 0 0 1-.18-1.5 6.5 6.5 0 0 1 6.5-6.5c.17 0 .33.01.5.02A6.5 6.5 0 0 1 22.98 22c.01.17.02.33.02.5z" fill="#103f91"/><path fill="none" d="M0 0h32v32H0z"/><path d="M17 11.17v10.8A2.031 2.031 0 0 1 14.97 24h-4.79a6.162 6.162 0 0 1-.18-1.5 6.5 6.5 0 0 1 6.5-6.5 1.208 1.208 0 0 1-.83-.34l-5.33-5.33a1.19 1.19 0 0 1-.22-.33h5.71A1.178 1.178 0 0 1 17 11.17z" opacity=".5"/><rect x="2" y="9" width="14" height="14" rx="1.17" fill="#185abd"/><path d="M8.558 17.416Q8.93 18.508 9 18.8h.03q.068-.288.476-1.477l1.959-5.693h1.8l-3.319 8.75H8.015l-3.277-8.75h1.855z" fill="#fff"/></svg>