<svg width="24" height="24" viewBox="0 0 24 24" fill="none" xmlns="http://www.w3.org/2000/svg">
<path d="M11 18.5C11 21.5376 8.53757 24 5.5 24C2.46243 24 0 21.5376 0 18.5C0 15.4624 2.46243 13 5.5 13C8.53757 13 11 15.4624 11 18.5Z" fill="#561E60"/>
<path d="M6.59913 15.8863C6.00085 14.7074 4.94696 14.0001 3.63563 14.0001C2.52491 14.0001 1.48517 14.6417 0.902344 15.4767L1.49443 14.2748L5.07456 6.96416C5.79563 6.51166 6.64863 6.25 7.56274 6.25C9.02136 6.25 10.3244 6.91622 11.1841 7.96097L19.1163 23.3182L20.7502 24.0001H12.8752C11.436 24 10.1927 23.1613 9.60744 21.9459L6.59913 15.8863Z" fill="#CB6BDF"/>
<path d="M16.0602 2.68998L22.8672 16.2429C23.2312 16.9574 23.6046 17.8733 23.6046 17.8733L23.6039 17.8742C23.8366 18.4783 23.9787 19.1564 23.9995 19.8749C23.9995 20.0416 23.9996 20.2083 23.9996 20.375C23.9996 22.377 22.5165 24 20.6871 24C19.4135 24 18.3077 23.2134 17.7534 22.0599L11.4923 9.70561C10.7184 8.19141 9.34587 7 7.5478 7C6.24064 7 5.08582 7.59258 4.31059 8.52474L7.18904 2.6901C8.0233 1.09139 9.69652 0 11.6247 0C13.5527 0 15.2259 1.09133 16.0602 2.68998Z" fill="#894497"/>
</svg>
