<svg width="32" height="32" viewBox="0 0 32 32" fill="none" xmlns="http://www.w3.org/2000/svg">
<path d="M14.6667 24.6668C14.6667 28.7169 11.3834 32.0002 7.33333 32.0002C3.28325 32.0002 0 28.7169 0 24.6668C0 20.6167 3.28325 17.3335 7.33333 17.3335C11.3834 17.3335 14.6667 20.6167 14.6667 24.6668Z" fill="url(#paint0_linear_7601_167460)"/>
<path d="M6.75375 9.2934L0.816406 21.2971C1.62375 19.904 3.10746 19.0002 4.83346 19.0002C6.76744 19.0002 8.32422 20.1956 9.13448 21.8529L12.8076 29.2564C13.5869 30.8795 15.246 32.0001 17.1668 32.0002L27.6668 32.0002L25.4883 31.091L14.9121 10.6149C13.7658 9.22183 12.0284 8.3335 10.0836 8.3335C8.85957 8.3335 7.71776 8.68534 6.75375 9.2934Z" fill="url(#paint1_linear_7601_167460)"/>
<path d="M21.4143 3.5868L30.3541 21.3858C30.8659 22.385 31.4736 23.831 31.4736 23.831L31.4727 23.8322C31.783 24.6378 31.9725 25.542 32.0001 26.5C32.0002 26.7222 32.0002 26.9444 32.0002 27.1666C32.0002 29.836 30.0228 32 27.5836 32C25.8854 32 24.4111 30.9512 23.672 29.4132L14.9906 12.2194C14.1267 10.3204 12.2128 9 9.99049 9C8.47197 9 7.09743 9.6165 6.10352 10.6129L9.5861 3.58663C10.6985 1.45511 12.9294 0 15.5002 0C18.071 0 20.302 1.45518 21.4143 3.5868Z" fill="url(#paint2_linear_7601_167460)"/>
<defs>
<linearGradient id="paint0_linear_7601_167460" x1="-2.9881" y1="29.0415" x2="11.745" y2="24.7813" gradientUnits="userSpaceOnUse">
<stop offset="0.141549" stop-color="#9B52AA"/>
<stop offset="0.9988" stop-color="#4F2757"/>
</linearGradient>
<linearGradient id="paint1_linear_7601_167460" x1="18.347" y1="27.135" x2="7.83145" y2="11.1335" gradientUnits="userSpaceOnUse">
<stop stop-color="#B75CC9"/>
<stop offset="1" stop-color="#E8AAF4"/>
</linearGradient>
<linearGradient id="paint2_linear_7601_167460" x1="13.0981" y1="5.08333" x2="27.3798" y2="32.6725" gradientUnits="userSpaceOnUse">
<stop stop-color="#CB6ADE"/>
<stop offset="0.435975" stop-color="#8D479B"/>
<stop offset="1" stop-color="#4F2757"/>
</linearGradient>
</defs>
</svg>
