<svg width="16" height="16" viewBox="0 0 16 16" fill="none" xmlns="http://www.w3.org/2000/svg">
<path d="M7.33333 12.3332C7.33333 14.3582 5.69171 15.9998 3.66667 15.9998C1.64162 15.9998 0 14.3582 0 12.3332C0 10.3081 1.64162 8.6665 3.66667 8.6665C5.69171 8.6665 7.33333 10.3081 7.33333 12.3332Z" fill="#561E60"/>
<path d="M3.37663 4.64653L0.40625 10.6522C0.809845 9.95537 1.55333 9.49988 2.41656 9.49988C3.38386 9.49988 4.21369 10.0885 4.56741 10.9271L6.40503 14.631C6.79532 15.4409 7.62398 15.9998 8.58318 15.9998L13.8332 15.9999L12.744 15.5453L7.45584 5.30709C6.8827 4.61063 6.01404 4.1665 5.04166 4.1665C4.42961 4.1665 3.85866 4.34246 3.37663 4.64653Z" fill="#CB6BDF"/>
<path d="M10.7085 1.79163L14.9028 10.1462C15.2031 10.7266 15.7368 11.9155 15.7368 11.9155C15.892 12.3183 15.9862 12.771 16 13.25C16 13.3611 16.0002 13.4722 16.0002 13.5833C16.0002 14.918 15.0115 16 13.7919 16C12.9428 16 12.2056 15.4755 11.8361 14.7065L7.49515 6.10934C6.98321 5.15331 6.10629 4.5 4.99527 4.5C4.236 4.5 3.54872 4.80826 3.05176 5.30645L4.79307 1.79328C5.34926 0.727535 6.46471 0 7.75008 0C9.0355 0 10.1523 0.725815 10.7085 1.79163Z" fill="#894497"/>
</svg>
