<svg xmlns="http://www.w3.org/2000/svg" viewBox="0 0 24 24"> <g id="Color"> <path fill="#8C193F" d="M22.1,12v9.2c0,0.5-0.4,0.9-0.9,0.9H6.5c-0.5,0-0.9-0.4-0.9-0.9V12L22.1,12z"/> <path fill="#D23062" d="M5.6,12V2.8c0-0.5,0.4-0.9,0.9-0.9h14.7c0.5,0,0.9,0.4,0.9,0.9V12H5.6z"/> <rect x="1" y="1" fill="none" width="22" height="22"/> <path fill="#BC1948" d="M21.6,4.7h-16V12h16.5L23,6.3c0.1-0.8-0.4-1.5-1.2-1.6C21.7,4.7,21.7,4.7,21.6,4.7z"/> <path fill="#E8467C" d="M23,17.8L22.1,12H5.6v7.3h16.1c0.8,0,1.4-0.6,1.4-1.4l0,0C23,17.9,23,17.8,23,17.8z"/> <rect x="1" y="1" fill="none" width="22" height="22"/> <path opacity="0.5" enable-background="new    " d="M13.7,6.5H5.6v12.8h7.9c0.7,0,1.2-0.6,1.3-1.2V7.6C14.7,7,14.3,6.5,13.7,6.5z"/> <path id="Back_Plate" fill="#BC1948" d="M2.1,5.6h10.7c0.6,0,1.1,0.5,1.1,1.1v10.7c0,0.6-0.5,1.1-1.1,1.1H2.1 c-0.6,0-1.1-0.5-1.1-1.1V6.7C1,6.1,1.5,5.6,2.1,5.6z"/> <path fill="#FFFFFF" d="M4.7,8.3H7c1.1-0.1,2.1,0.2,3,0.9c0.7,0.7,1.1,1.7,1,2.7c0,0.7-0.2,1.4-0.5,2c-0.3,0.6-0.8,1-1.4,1.3 c-0.7,0.3-1.4,0.5-2.1,0.5H4.7V8.3z M7,14.5c0.5,0,0.9-0.1,1.3-0.3C8.7,14,9,13.7,9.2,13.3c0.2-0.4,0.3-0.9,0.3-1.4 c0-0.7-0.2-1.3-0.6-1.8C8.4,9.7,7.7,9.5,7,9.5H6.1v5H7z"/> </g> </svg>