<svg xmlns="http://www.w3.org/2000/svg" viewBox="0 0 16 16"><g id="Color"><path d="M15,.9999a1,1,0,0,0-1-1H3a1,1,0,0,0-1,1v7H15Z" fill="#d23062"/><path d="M2,7.9999v7a1,1,0,0,0,1,1H14a1,1,0,0,0,1-1v-7Z" fill="#8c193f"/><path d="M16,12.34552h0a.65437.65437,0,0,1-.65438.65438H2v-5H15l.98276,4.19641A.65407.65407,0,0,1,16,12.34552Z" fill="#e8467c"/><path d="M15.294,2.9999H2v5H15l.96838-4.15022A.69243.69243,0,0,0,15.294,2.9999Z" fill="#bc1948"/><path d="M10.00012,4.00332,2,3.9999l.00192,10H8.99975A2.00037,2.00037,0,0,0,11,11.99941V5.00332A.99994.99994,0,0,0,10.00012,4.00332Z" opacity="0.5"/><rect id="Back_Plate" data-name="Back Plate" x="-0.00002" y="2.9999" width="10" height="10" rx="1" fill="#bc1948"/><path d="M2,4.9999H3.92885A3.51684,3.51684,0,0,1,6.364,5.74676a2.78928,2.78928,0,0,1,.82426,2.17783,3.14411,3.14411,0,0,1-.40795,1.61506,2.75483,2.75483,0,0,1-1.15271,1.0795,3.75578,3.75578,0,0,1-1.73222.38075H2Zm1.90377,5.03347a2.28483,2.28483,0,0,0,1.09832-.24895,1.67739,1.67739,0,0,0,.70712-.71967A2.39657,2.39657,0,0,0,5.954,7.94551a1.948,1.948,0,0,0-.523-1.46025A2.07526,2.07526,0,0,0,3.92048,5.9748H3.17153v4.05857Z" fill="#fff"/><rect width="16" height="16" fill="none"/></g></svg>