<svg xmlns="http://www.w3.org/2000/svg" viewBox="0 0 32 32"><g id="Color"><path d="M30,3.33A1.33016,1.33016,0,0,0,28.67,1.9999H7.33A1.33017,1.33017,0,0,0,6,3.33V15.9999H30Z" fill="#d23062"/><path d="M6,15.9999V28.66982A1.33017,1.33017,0,0,0,7.33,29.9999H28.67A1.33016,1.33016,0,0,0,30,28.66982V15.9999Z" fill="#8c193f"/><rect y="-0.0001" width="32" height="32" transform="translate(32 31.9998) rotate(-180)" fill="none"/><path d="M30.686,25.9999H6v-10H30l1.959,8.39573A1.30723,1.30723,0,0,1,30.686,25.9999Z" fill="#e8467c"/><path d="M30.686,5.9999H6v10H30l1.959-8.39573A1.30723,1.30723,0,0,0,30.686,5.9999Z" fill="#bc1948"/><path d="M16.66663,6.9999H6v19H16.66663A1.33732,1.33732,0,0,0,18,24.66653V8.33321A1.33727,1.33727,0,0,0,16.66663,6.9999Z" opacity="0.1"/><path d="M15.66663,7.9999H6v17h9.66663A1.33732,1.33732,0,0,0,17,23.66653V9.33321A1.33727,1.33727,0,0,0,15.66663,7.9999Z" opacity="0.2"/><path d="M14.66663,7.9999H6v17h8.66663A1.33732,1.33732,0,0,0,16,23.66653V9.33321A1.33727,1.33727,0,0,0,14.66663,7.9999Z" opacity="0.2"/><rect id="Back_Plate" data-name="Back Plate" x="-0.00006" y="7.9999" width="16.00003" height="16" rx="1.33334" fill="#bc1948"/><path d="M3.67638,10.9999H6.89117a5.8614,5.8614,0,0,1,4.05858,1.24477,4.64879,4.64879,0,0,1,1.37377,3.62971,5.2402,5.2402,0,0,1-.67991,2.69177,4.59144,4.59144,0,0,1-1.9212,1.79916,6.25948,6.25948,0,0,1-2.887.63459h-3.159Zm3.173,8.38912a3.80811,3.80811,0,0,0,1.83054-.41492,2.79556,2.79556,0,0,0,1.17852-1.19945,3.99427,3.99427,0,0,0,.40795-1.86541,3.24673,3.24673,0,0,0-.87169-2.43375,3.45879,3.45879,0,0,0-2.51743-.85077H5.629V19.389Z" fill="#fff"/></g></svg>