<svg width="16" height="16" viewBox="0 0 16 16" fill="none" xmlns="http://www.w3.org/2000/svg">
<path d="M6 6.13595V8.13169C6 8.86315 6.39931 9.53627 7.04125 9.88691L8.37825 10.6172L4.75969 12.6748L4.04 12.6154L3.04126 12.0698C2.39931 11.7192 2 11.0461 2 10.3146V5.68685C2 4.95575 2.39893 4.2829 3.04038 3.93211L6.85909 1.84375C6.66649 1.97747 6.50114 2.14249 6.3684 2.32976L6.94088 4.47485V5.58318L6 6.13595Z" fill="url(#paint0_radial_48543_184795)"/>
<path d="M6 6.13595V8.13169C6 8.86315 6.39931 9.53627 7.04125 9.88691L8.37825 10.6172L4.75969 12.6748L4.04 12.6154L3.04126 12.0698C2.39931 11.7192 2 11.0461 2 10.3146V5.68685C2 4.95575 2.39893 4.2829 3.04038 3.93211L6.85909 1.84375C6.66649 1.97747 6.50114 2.14249 6.3684 2.32976L6.94088 4.47485V5.58318L6 6.13595Z" fill="url(#paint1_linear_48543_184795)"/>
<path d="M10.0038 6.3457V8.13035C10.0038 8.86181 9.60449 9.53493 8.96255 9.88557L4.96255 12.0705C4.39146 12.3824 3.70618 12.3962 3.125 12.1118L7.04506 14.2531C7.64256 14.5794 8.36505 14.5794 8.96255 14.2531L12.9626 12.0682C13.6045 11.7175 14.0038 11.0444 14.0038 10.3129V8.6981L10.0038 6.3457Z" fill="url(#paint2_radial_48543_184795)"/>
<path d="M10.0038 6.3457V8.13035C10.0038 8.86181 9.60449 9.53493 8.96255 9.88557L4.96255 12.0705C4.39146 12.3824 3.70618 12.3962 3.125 12.1118L7.04506 14.2531C7.64256 14.5794 8.36505 14.5794 8.96255 14.2531L12.9626 12.0682C13.6045 11.7175 14.0038 11.0444 14.0038 10.3129V8.6981L10.0038 6.3457Z" fill="url(#paint3_linear_48543_184795)"/>
<path d="M6 6.81351L7.04038 6.24455C7.63834 5.91754 8.36166 5.91754 8.95963 6.24455L12.9596 8.43205C13.6011 8.78284 14 9.45569 14 10.1868V5.68555C14 4.95444 13.6011 4.2816 12.9596 3.9308L8.95963 1.7433C8.36166 1.41629 7.63834 1.41629 7.04038 1.7433L6.85968 1.84212C6.32488 2.21313 6 2.82546 6 3.48523V6.81351Z" fill="url(#paint4_radial_48543_184795)"/>
<path d="M6 6.81351L7.04038 6.24455C7.63834 5.91754 8.36166 5.91754 8.95963 6.24455L12.9596 8.43205C13.6011 8.78284 14 9.45569 14 10.1868V5.68555C14 4.95444 13.6011 4.2816 12.9596 3.9308L8.95963 1.7433C8.36166 1.41629 7.63834 1.41629 7.04038 1.7433L6.85968 1.84212C6.32488 2.21313 6 2.82546 6 3.48523V6.81351Z" fill="url(#paint5_linear_48543_184795)"/>
<defs>
<radialGradient id="paint0_radial_48543_184795" cx="0" cy="0" r="1" gradientUnits="userSpaceOnUse" gradientTransform="translate(5.44995 3.88451) rotate(96.0418) scale(10.9023 13.0597)">
<stop offset="0.0849293" stop-color="#AE7FE2"/>
<stop offset="1" stop-color="#0078D4"/>
</radialGradient>
<linearGradient id="paint1_linear_48543_184795" x1="6.096" y1="11.5419" x2="5.59547" y2="10.5689" gradientUnits="userSpaceOnUse">
<stop offset="0.9999" stop-color="#114A8B"/>
<stop offset="1" stop-color="#0078D4" stop-opacity="0"/>
</linearGradient>
<radialGradient id="paint2_radial_48543_184795" cx="0" cy="0" r="1" gradientUnits="userSpaceOnUse" gradientTransform="translate(4.3249 12.1618) rotate(-20.8) scale(9.44477 8.45879)">
<stop offset="0.125644" stop-color="#D59DFF"/>
<stop offset="1" stop-color="#5E438F"/>
</radialGradient>
<linearGradient id="paint3_linear_48543_184795" x1="12.111" y1="8.28619" x2="11.6584" y2="9.14409" gradientUnits="userSpaceOnUse">
<stop offset="0.9999" stop-color="#493474"/>
<stop offset="1" stop-color="#8C66BA" stop-opacity="0"/>
</linearGradient>
<radialGradient id="paint4_radial_48543_184795" cx="0" cy="0" r="1" gradientUnits="userSpaceOnUse" gradientTransform="translate(13.5483 8.49214) rotate(-152.158) scale(7.78545 10.3019)">
<stop stop-color="#50E6FF"/>
<stop offset="1" stop-color="#436DCD"/>
</radialGradient>
<linearGradient id="paint5_linear_48543_184795" x1="6" y1="3.55512" x2="7.01994" y2="3.55512" gradientUnits="userSpaceOnUse">
<stop stop-color="#2D3F80"/>
<stop offset="0.9999" stop-color="#2D3F80"/>
<stop offset="1" stop-color="#436DCD" stop-opacity="0"/>
</linearGradient>
</defs>
</svg>
