<svg width="24" height="24" viewBox="0 0 24 24" fill="none" xmlns="http://www.w3.org/2000/svg">
<path d="M10.125 1.96094L12 2.15163V7.55279L9 8.24974L8.00001 9.62186V11.7788C8.00001 13.2282 8.78404 14.5642 10.0494 15.271L12.8773 16.8506L8 19.4301L5.97245 19.7191L4.04939 18.6449C2.78403 17.9381 2 16.6022 2 15.1528V8.84836C2 7.3986 2.78445 6.06232 4.05035 5.35568L9.69836 2.2029L9.69505 2.20523L10.125 1.96094Z" fill="url(#paint0_radial_48543_184809)"/>
<path d="M10.125 1.96094L12 2.15163V7.55279L9 8.24974L8.00001 9.62186V11.7788C8.00001 13.2282 8.78404 14.5642 10.0494 15.271L12.8773 16.8506L8 19.4301L5.97245 19.7191L4.04939 18.6449C2.78403 17.9381 2 16.6022 2 15.1528V8.84836C2 7.3986 2.78445 6.06232 4.05035 5.35568L9.69836 2.2029L9.69505 2.20523L10.125 1.96094Z" fill="url(#paint1_linear_48543_184809)"/>
<path d="M15.9989 9L20.9989 12L21.9989 13V15.1527C21.9989 16.602 21.2149 17.938 19.9495 18.6448L13.9495 21.9962C12.7373 22.6734 11.2605 22.6734 10.0483 21.9962L4.04829 18.6448C3.93167 18.5797 3.81914 18.5092 3.71094 18.4338L4.04826 18.6222C5.26052 19.2993 6.73723 19.2993 7.94949 18.6222L13.9495 15.2708C15.2148 14.564 15.9989 13.228 15.9989 11.7786V9Z" fill="url(#paint2_radial_48543_184809)"/>
<path d="M15.9989 9L20.9989 12L21.9989 13V15.1527C21.9989 16.602 21.2149 17.938 19.9495 18.6448L13.9495 21.9962C12.7373 22.6734 11.2605 22.6734 10.0483 21.9962L4.04829 18.6448C3.93167 18.5797 3.81914 18.5092 3.71094 18.4338L4.04826 18.6222C5.26052 19.2993 6.73723 19.2993 7.94949 18.6222L13.9495 15.2708C15.2148 14.564 15.9989 13.228 15.9989 11.7786V9Z" fill="url(#paint3_linear_48543_184809)"/>
<path d="M19.9496 5.35658L13.9496 2.00732C12.7379 1.3309 11.2621 1.33089 10.0503 2.00731L9.69721 2.20444C8.6402 2.94836 8 4.16545 8 5.47515V9.65382L10.0503 8.50929C11.2621 7.83287 12.7379 7.83287 13.9496 8.50929L19.9496 11.8586C21.1867 12.5491 21.964 13.841 21.9988 15.2525C21.9996 15.2196 22 15.1867 22 15.1537V8.84927C22 7.3995 21.2155 6.06322 19.9496 5.35658Z" fill="url(#paint4_radial_48543_184809)"/>
<path d="M19.9496 5.35658L13.9496 2.00732C12.7379 1.3309 11.2621 1.33089 10.0503 2.00731L9.69721 2.20444C8.6402 2.94836 8 4.16545 8 5.47515V9.65382L10.0503 8.50929C11.2621 7.83287 12.7379 7.83287 13.9496 8.50929L19.9496 11.8586C21.1867 12.5491 21.964 13.841 21.9988 15.2525C21.9996 15.2196 22 15.1867 22 15.1537V8.84927C22 7.3995 21.2155 6.06322 19.9496 5.35658Z" fill="url(#paint5_linear_48543_184809)"/>
<defs>
<radialGradient id="paint0_radial_48543_184809" cx="0" cy="0" r="1" gradientUnits="userSpaceOnUse" gradientTransform="translate(7.43863 5.53189) rotate(107.382) scale(16.8285)">
<stop offset="0.0598494" stop-color="#AE7FE2"/>
<stop offset="1" stop-color="#0078D4"/>
</radialGradient>
<linearGradient id="paint1_linear_48543_184809" x1="8.91403" y1="18.1348" x2="8.11684" y2="16.6511" gradientUnits="userSpaceOnUse">
<stop offset="0.9999" stop-color="#114A8B"/>
<stop offset="1" stop-color="#0078D4" stop-opacity="0"/>
</linearGradient>
<radialGradient id="paint2_radial_48543_184809" cx="0" cy="0" r="1" gradientUnits="userSpaceOnUse" gradientTransform="translate(6.06137 18.7412) rotate(-18.9851) scale(15.0801 10.7709)">
<stop offset="0.110651" stop-color="#D59DFF"/>
<stop offset="1" stop-color="#5E438F"/>
</radialGradient>
<linearGradient id="paint3_linear_48543_184809" x1="18.8078" y1="11.2186" x2="17.9677" y2="12.682" gradientUnits="userSpaceOnUse">
<stop offset="0.9999" stop-color="#493474"/>
<stop offset="1" stop-color="#8C66BA" stop-opacity="0"/>
</linearGradient>
<radialGradient id="paint4_radial_48543_184809" cx="0" cy="0" r="1" gradientUnits="userSpaceOnUse" gradientTransform="translate(20.3876 11.3507) rotate(-165.231) scale(14.8823 14.8823)">
<stop stop-color="#50E6FF"/>
<stop offset="1" stop-color="#436DCD"/>
</radialGradient>
<linearGradient id="paint5_linear_48543_184809" x1="8" y1="6.94585" x2="9.63344" y2="6.94585" gradientUnits="userSpaceOnUse">
<stop offset="0.9999" stop-color="#2D3F80"/>
<stop offset="1" stop-color="#436DCD" stop-opacity="0"/>
</linearGradient>
</defs>
</svg>
