<svg xmlns="http://www.w3.org/2000/svg" viewBox="0 0 24 24"><title>Project_24x</title><path d="M22,22H9a1,1,0,0,1-1-1V15l6-2,5.188,2H22a1,1,0,0,1,1,1v5A1,1,0,0,1,22,22Z" fill="#185c37"/><path d="M15,9,9,12,3,9V3A1,1,0,0,1,4,2H14a1,1,0,0,1,1,1Z" fill="#33c481"/><path d="M3,9H18a1,1,0,0,1,1,1v5a0,0,0,0,1,0,0H4a1,1,0,0,1-1-1V9A0,0,0,0,1,3,9Z" fill="#21a366"/><path d="M12.533,19A1.471,1.471,0,0,0,14,17.533V8a1,1,0,0,0-1-1H3v7a1,1,0,0,0,1,1H8v4Z" opacity="0.5"/><path d="M12.533,19A1.471,1.471,0,0,0,14,17.533V8a1,1,0,0,0-1-1H3v7a1,1,0,0,0,1,1H8v4Z" opacity="0.1"/><rect x="1" y="6" width="12" height="12" rx="1.2" fill="#107c41"/><path d="M7.457,8.333a2.782,2.782,0,0,1,1.907.588,2.161,2.161,0,0,1,.662,1.7A2.471,2.471,0,0,1,9.7,11.9a2.25,2.25,0,0,1-.931.867,3.029,3.029,0,0,1-1.4.309H6.046v2.593H4.689V8.333ZM6.046,11.954H7.214a1.465,1.465,0,0,0,1.033-.325,1.233,1.233,0,0,0,.349-.948q0-1.212-1.338-1.212H6.046Z" fill="#fff"/><rect width="24" height="24" fill="none"/></svg>