<svg xmlns="http://www.w3.org/2000/svg" viewBox="0 0 32 32"><title>Project_32x</title><path d="M28.83,28H12.17A1.17,1.17,0,0,1,11,26.83V20l7-4,7.187,4H28.83A1.17,1.17,0,0,1,30,21.17v5.66A1.17,1.17,0,0,1,28.83,28Z" fill="#185c37"/><path d="M20,12l-7,5L6,12V5.17A1.17,1.17,0,0,1,7.17,4H18.83A1.17,1.17,0,0,1,20,5.17Z" fill="#33c481"/><path d="M6,12H23.83A1.17,1.17,0,0,1,25,13.17V20a0,0,0,0,1,0,0H7.17A1.17,1.17,0,0,1,6,18.83V12A0,0,0,0,1,6,12Z" fill="#21a366"/><path d="M15.833,24A1.17,1.17,0,0,0,17,22.833V11a1,1,0,0,0-1-1H6v9a1,1,0,0,0,1,1h4v4Z" opacity="0.5"/><path d="M15.833,24A1.17,1.17,0,0,0,17,22.833V11a1,1,0,0,0-1-1H6v9a1,1,0,0,0,1,1h4v4Z" opacity="0.1"/><rect x="2" y="9" width="14" height="14" rx="1.167" fill="#107c41"/><path d="M9.194,11.4a3.855,3.855,0,0,1,2.545.744,2.658,2.658,0,0,1,.883,2.154,3.969,3.969,0,0,1-.437,1.872,2.921,2.921,0,0,1-1.242,1.1,4.217,4.217,0,0,1-1.866.391H7.311v3.02H5.5V11.4ZM7.311,16.046H8.87a2.026,2.026,0,0,0,1.378-.41,1.672,1.672,0,0,0,.466-1.269q0-1.533-1.786-1.533H7.311Z" fill="#fff"/><rect width="32" height="32" fill="none"/></svg>