<svg width="32" height="32" viewBox="0 0 32 32" fill="none" xmlns="http://www.w3.org/2000/svg">
<g clip-path="url(#clip0_5_3)">
<g clip-path="url(#clip1_5_3)">
<mask id="mask0_5_3" style="mask-type:alpha" maskUnits="userSpaceOnUse" x="3" y="0" width="25" height="32">
<path d="M17 1.33333C17 0.596954 17.597 0 18.3333 0H26.6666C27.403 0 28 0.596954 28 1.33333V30.6667C28 31.403 27.403 32 26.6666 32H4.33335C3.59697 32 3.00002 31.403 3.00002 30.6667V17.3333C3.00002 16.597 3.59697 16 4.33335 16H10V9.33333C10 8.59695 10.597 8 11.3333 8H17V1.33333Z" fill="white"/>
</mask>
<g mask="url(#mask0_5_3)">
<path d="M28 0V32H17L17 0H28Z" fill="url(#paint0_linear_5_3)"/>
<path opacity="0.25" d="M21 9.83333V32.5H10V8.5H19.6667C20.4031 8.5 21 9.09695 21 9.83333Z" fill="black" stroke="black" stroke-opacity="0.5"/>
<path d="M21 9.33333V32H10V8H19.6667C20.4031 8 21 8.59695 21 9.33333Z" fill="url(#paint1_linear_5_3)"/>
<path d="M2.99995 16V32H14V17.3333C14 16.597 13.403 16 12.6666 16H2.99995Z" fill="url(#paint2_linear_5_3)"/>
</g>
</g>
</g>
<defs>
<linearGradient id="paint0_linear_5_3" x1="15.1667" y1="-2.99265e-07" x2="28.9564" y2="30.1431" gradientUnits="userSpaceOnUse">
<stop stop-color="#E6AD10"/>
<stop offset="1" stop-color="#C87E0E"/>
</linearGradient>
<linearGradient id="paint1_linear_5_3" x1="9.99912" y1="8" x2="21.6158" y2="31.2333" gradientUnits="userSpaceOnUse">
<stop stop-color="#F6D751"/>
<stop offset="1" stop-color="#E6AD10"/>
</linearGradient>
<linearGradient id="paint2_linear_5_3" x1="2.99906" y1="16" x2="9.39563" y2="31.6335" gradientUnits="userSpaceOnUse">
<stop stop-color="#F9E589"/>
<stop offset="1" stop-color="#F6D751"/>
</linearGradient>
<clipPath id="clip0_5_3">
<rect width="32" height="32" fill="white"/>
</clipPath>
<clipPath id="clip1_5_3">
<rect width="32" height="32" fill="white"/>
</clipPath>
</defs>
</svg>
