<svg width="16" height="16" viewBox="0 0 16 16" fill="none" xmlns="http://www.w3.org/2000/svg">
<g clip-path="url(#clip0_5_0)">
<g clip-path="url(#clip1_5_0)">
<mask id="mask0_5_0" style="mask-type:alpha" maskUnits="userSpaceOnUse" x="1" y="0" width="14" height="16">
<path d="M9 0.666667C9 0.298477 9.29848 0 9.66667 0H14.3333C14.7015 0 15 0.298477 15 0.666667V15.3333C15 15.7015 14.7015 16 14.3333 16H1.66667C1.29848 16 1 15.7015 1 15.3333V8.66667C1 8.29848 1.29848 8 1.66667 8H5V4.66667C5 4.29848 5.29848 4 5.66667 4H9V0.666667Z" fill="white"/>
</mask>
<g mask="url(#mask0_5_0)">
<path d="M15 0V16H8.99997L8.99997 0H15Z" fill="url(#paint0_linear_5_0)"/>
<path opacity="0.25" d="M11 5.16667V16.5H4.99997V4.5H10.3333C10.7015 4.5 11 4.79848 11 5.16667Z" fill="black" stroke="black" stroke-opacity="0.5"/>
<path d="M11 4.66667V16H4.99997V4H10.3333C10.7015 4 11 4.29848 11 4.66667Z" fill="url(#paint1_linear_5_0)"/>
<path d="M0.999969 8V16H6.99997V8.66667C6.99997 8.29848 6.70149 8 6.3333 8H0.999969Z" fill="url(#paint2_linear_5_0)"/>
</g>
</g>
</g>
<defs>
<linearGradient id="paint0_linear_5_0" x1="7.99997" y1="-1.49632e-07" x2="14.5" y2="15.5" gradientUnits="userSpaceOnUse">
<stop stop-color="#E6AD10"/>
<stop offset="1" stop-color="#C87E0E"/>
</linearGradient>
<linearGradient id="paint1_linear_5_0" x1="4.99948" y1="4" x2="10.4995" y2="16" gradientUnits="userSpaceOnUse">
<stop stop-color="#F6D751"/>
<stop offset="1" stop-color="#E6AD10"/>
</linearGradient>
<linearGradient id="paint2_linear_5_0" x1="0.999481" y1="8" x2="3.99997" y2="16" gradientUnits="userSpaceOnUse">
<stop stop-color="#F9E589"/>
<stop offset="1" stop-color="#F6D751"/>
</linearGradient>
<clipPath id="clip0_5_0">
<rect width="16" height="16" fill="white"/>
</clipPath>
<clipPath id="clip1_5_0">
<rect width="16" height="16" fill="white"/>
</clipPath>
</defs>
</svg>
