<svg width="32" height="32" viewBox="0 0 32 32" fill="none" xmlns="http://www.w3.org/2000/svg">
<path d="M21.0063 5.41422L4.42765 15.9229L3.00189 13.6736V11.7354C3.00189 11.0297 3.35915 10.372 3.95112 9.9879L13.5883 3.73449C15.0566 2.78175 16.9478 2.78161 18.4163 3.73412L21.0063 5.41422Z" fill="url(#paint0_linear_353_14198)"/>
<path d="M18.2683 3.6424C18.3181 3.67204 18.3676 3.70273 18.4165 3.73449L25.9378 8.61327L7.28914 20.434L4.42749 15.9194L18.1138 7.22735C19.4101 6.40404 19.4669 4.55193 18.2683 3.6424Z" fill="url(#paint1_linear_353_14198)"/>
<path d="M18.2683 3.6424C18.3181 3.67204 18.3676 3.70273 18.4165 3.73449L25.9378 8.61327L7.28914 20.434L4.42749 15.9194L18.1138 7.22735C19.4101 6.40404 19.4669 4.55193 18.2683 3.6424Z" fill="url(#paint2_linear_353_14198)" fill-opacity="0.2"/>
<path d="M14.7293 22.6911L7.28894 20.434L23.1079 10.4066C24.4401 9.56209 24.4367 7.61712 23.1014 6.7774L23.0302 6.7326L23.2353 6.86024L28.0498 9.98325C28.6419 10.3673 28.9993 11.0251 28.9993 11.7309V13.6068L14.7293 22.6911Z" fill="url(#paint3_linear_353_14198)"/>
<path d="M14.7293 22.6911L7.28894 20.434L23.1079 10.4066C24.4401 9.56209 24.4367 7.61712 23.1014 6.7774L23.0302 6.7326L23.2353 6.86024L28.0498 9.98325C28.6419 10.3673 28.9993 11.0251 28.9993 11.7309V13.6068L14.7293 22.6911Z" fill="url(#paint4_linear_353_14198)" fill-opacity="0.2"/>
<path d="M18.4163 3.73412C16.9478 2.78161 15.0566 2.78175 13.5883 3.73449L3.95112 9.9879C3.35915 10.372 3.00189 11.0297 3.00189 11.7354V11.8302C3.02513 12.5385 3.39792 13.1915 4.00001 13.5711L15.983 21.1256L27.996 13.5825C28.6199 13.1908 28.9986 12.5059 28.9986 11.7692V13.6068L28.9988 11.7308C28.9988 11.025 28.6415 10.3672 28.0493 9.98315L18.4163 3.73412Z" fill="url(#paint5_radial_353_14198)"/>
<path d="M13.8709 29.0011H24.4983C26.9836 29.0011 28.9983 26.9864 28.9983 24.5011V11.6781C28.9983 12.4715 28.5905 13.2091 27.9186 13.631L12.2086 23.4954C11.357 24.0301 10.8401 24.9651 10.8402 25.9707C10.8404 27.6444 12.1972 29.0011 13.8709 29.0011Z" fill="url(#paint6_linear_353_14198)"/>
<path d="M13.8709 29.0011H24.4983C26.9836 29.0011 28.9983 26.9864 28.9983 24.5011V11.6781C28.9983 12.4715 28.5905 13.2091 27.9186 13.631L12.2086 23.4954C11.357 24.0301 10.8401 24.9651 10.8402 25.9707C10.8404 27.6444 12.1972 29.0011 13.8709 29.0011Z" fill="url(#paint7_radial_353_14198)" fill-opacity="0.4"/>
<path d="M13.8709 29.0011H24.4983C26.9836 29.0011 28.9983 26.9864 28.9983 24.5011V11.6781C28.9983 12.4715 28.5905 13.2091 27.9186 13.631L12.2086 23.4954C11.357 24.0301 10.8401 24.9651 10.8402 25.9707C10.8404 27.6444 12.1972 29.0011 13.8709 29.0011Z" fill="url(#paint8_radial_353_14198)" fill-opacity="0.5"/>
<path d="M18.1862 29.0002H7.5004C5.01512 29.0002 3.0004 26.9855 3.0004 24.5002V11.7128C3.0004 12.4774 3.3927 13.1885 4.03946 13.5962L19.7712 23.5142C20.6346 24.0585 21.1583 25.0078 21.1582 26.0285C21.158 27.6698 19.8274 29.0002 18.1862 29.0002Z" fill="url(#paint9_radial_353_14198)"/>
<path d="M18.1862 29.0002H7.5004C5.01512 29.0002 3.0004 26.9855 3.0004 24.5002V11.7128C3.0004 12.4774 3.3927 13.1885 4.03946 13.5962L19.7712 23.5142C20.6346 24.0585 21.1583 25.0078 21.1582 26.0285C21.158 27.6698 19.8274 29.0002 18.1862 29.0002Z" fill="url(#paint10_linear_353_14198)"/>
<path d="M11.25 14H4.75C3.23122 14 2 15.2312 2 16.75V23.25C2 24.7688 3.23122 26 4.75 26H11.25C12.7688 26 14 24.7688 14 23.25V16.75C14 15.2312 12.7688 14 11.25 14Z" fill="url(#paint11_radial_353_14198)"/>
<path d="M11.25 14H4.75C3.23122 14 2 15.2312 2 16.75V23.25C2 24.7688 3.23122 26 4.75 26H11.25C12.7688 26 14 24.7688 14 23.25V16.75C14 15.2312 12.7688 14 11.25 14Z" fill="url(#paint12_radial_353_14198)" fill-opacity="0.5"/>
<path d="M7.96828 23.3587C7.03182 23.3587 6.26302 23.0567 5.66188 22.4525C5.06073 21.8483 4.76016 21.0599 4.76016 20.0872C4.76016 19.0601 5.06526 18.2294 5.67547 17.595C6.28568 16.9606 7.08469 16.6434 8.0725 16.6434C9.00594 16.6434 9.76568 16.947 10.3517 17.5542C10.9408 18.1614 11.2353 18.9619 11.2353 19.9558C11.2353 20.9768 10.9302 21.8 10.32 22.4253C9.71281 23.0476 8.92891 23.3587 7.96828 23.3587ZM7.99547 22.0764C8.50599 22.0764 8.91682 21.8967 9.22797 21.5372C9.53911 21.1777 9.69469 20.6778 9.69469 20.0373C9.69469 19.3697 9.54365 18.8502 9.24156 18.4786C8.93948 18.107 8.5362 17.9213 8.03172 17.9213C7.51214 17.9213 7.09375 18.1131 6.77656 18.4967C6.45938 18.8773 6.30078 19.3818 6.30078 20.0102C6.30078 20.6476 6.45938 21.152 6.77656 21.5236C7.09375 21.8921 7.50005 22.0764 7.99547 22.0764Z" fill="white"/>
<path d="M7.96826 23.3587C7.0318 23.3587 6.263 23.0567 5.66185 22.4525C5.0607 21.8483 4.76013 21.0599 4.76013 20.0872C4.76013 19.0601 5.06524 18.2294 5.67544 17.595C6.28565 16.9606 7.08466 16.6434 8.07248 16.6434C9.00591 16.6434 9.76565 16.947 10.3517 17.5542C10.9408 18.1614 11.2353 18.9619 11.2353 19.9558C11.2353 20.9768 10.9302 21.8 10.32 22.4253C9.71279 23.0476 8.92888 23.3587 7.96826 23.3587ZM7.99544 22.0764C8.50597 22.0764 8.9168 21.8967 9.22794 21.5372C9.53909 21.1777 9.69466 20.6778 9.69466 20.0373C9.69466 19.3697 9.54362 18.8502 9.24154 18.4786C8.93945 18.107 8.53617 17.9212 8.03169 17.9212C7.51211 17.9212 7.09373 18.1131 6.77654 18.4967C6.45935 18.8773 6.30076 19.3818 6.30076 20.0102C6.30076 20.6475 6.45935 21.152 6.77654 21.5236C7.09373 21.8921 7.50003 22.0764 7.99544 22.0764Z" fill="white"/>
<defs>
<linearGradient id="paint0_linear_353_14198" x1="5.88155" y1="14.8183" x2="21.0063" y2="5.43724" gradientUnits="userSpaceOnUse">
<stop stop-color="#20A7FA"/>
<stop offset="0.4" stop-color="#3BD5FF"/>
<stop offset="1" stop-color="#C4B0FF"/>
</linearGradient>
<linearGradient id="paint1_linear_353_14198" x1="11.0876" y1="18.0176" x2="19.5075" y2="4.53535" gradientUnits="userSpaceOnUse">
<stop stop-color="#165AD9"/>
<stop offset="0.5008" stop-color="#1880E5"/>
<stop offset="1" stop-color="#8587FF"/>
</linearGradient>
<linearGradient id="paint2_linear_353_14198" x1="17.2286" y1="18.201" x2="7.88049" y2="10.584" gradientUnits="userSpaceOnUse">
<stop offset="0.236946" stop-color="#448AFF" stop-opacity="0"/>
<stop offset="0.792113" stop-color="#0032B1"/>
</linearGradient>
<linearGradient id="paint3_linear_353_14198" x1="16.0387" y1="21.1341" x2="30.8121" y2="11.6791" gradientUnits="userSpaceOnUse">
<stop stop-color="#1A43A6"/>
<stop offset="0.492267" stop-color="#2052CB"/>
<stop offset="1" stop-color="#5F20CB"/>
</linearGradient>
<linearGradient id="paint4_linear_353_14198" x1="20.2091" y1="20.5688" x2="11.2319" y2="12.8007" gradientUnits="userSpaceOnUse">
<stop stop-color="#0045B9" stop-opacity="0"/>
<stop offset="0.669859" stop-color="#0D1F69"/>
</linearGradient>
<radialGradient id="paint5_radial_353_14198" cx="0" cy="0" r="1" gradientUnits="userSpaceOnUse" gradientTransform="translate(16.0013 3.59057) rotate(-90) scale(19.5009 21.1067)">
<stop offset="0.568182" stop-color="#275FF0" stop-opacity="0"/>
<stop offset="0.992424" stop-color="#002177"/>
</radialGradient>
<linearGradient id="paint6_linear_353_14198" x1="28.9983" y1="20.2913" x2="15.8933" y2="20.2913" gradientUnits="userSpaceOnUse">
<stop stop-color="#4DC4FF"/>
<stop offset="0.196145" stop-color="#0FAFFF"/>
</linearGradient>
<radialGradient id="paint7_radial_353_14198" cx="0" cy="0" r="1" gradientUnits="userSpaceOnUse" gradientTransform="translate(18.9562 26.0461) rotate(-45) scale(8.35708)">
<stop offset="0.259477" stop-color="#0060D1"/>
<stop offset="0.908166" stop-color="#0383F1" stop-opacity="0"/>
</radialGradient>
<radialGradient id="paint8_radial_353_14198" cx="0" cy="0" r="1" gradientUnits="userSpaceOnUse" gradientTransform="translate(6.34585 32.2282) rotate(-52.6577) scale(28.3684 25.6522)">
<stop offset="0.732317" stop-color="#F4A7F7" stop-opacity="0"/>
<stop offset="1" stop-color="#F4A7F7"/>
</radialGradient>
<radialGradient id="paint9_radial_353_14198" cx="0" cy="0" r="1" gradientUnits="userSpaceOnUse" gradientTransform="translate(12.0794 18.55) rotate(123.339) scale(14.9678 38.8433)">
<stop stop-color="#49DEFF"/>
<stop offset="0.724349" stop-color="#29C3FF"/>
</radialGradient>
<linearGradient id="paint10_linear_353_14198" x1="1.16485" y1="26.0176" x2="13.7825" y2="26.0085" gradientUnits="userSpaceOnUse">
<stop offset="0.205882" stop-color="#6CE0FF"/>
<stop offset="0.535" stop-color="#50D5FF" stop-opacity="0"/>
</linearGradient>
<radialGradient id="paint11_radial_353_14198" cx="0" cy="0" r="1" gradientUnits="userSpaceOnUse" gradientTransform="translate(1.95718 14.4615) rotate(46.9242) scale(15.7964)">
<stop offset="0.038877" stop-color="#0091FF"/>
<stop offset="0.919119" stop-color="#183DAD"/>
</radialGradient>
<radialGradient id="paint12_radial_353_14198" cx="0" cy="0" r="1" gradientUnits="userSpaceOnUse" gradientTransform="translate(8 21.3079) rotate(90) scale(8.4 9.68913)">
<stop offset="0.557796" stop-color="#0FA5F7" stop-opacity="0"/>
<stop offset="1" stop-color="#74C6FF"/>
</radialGradient>
</defs>
</svg>
