<svg xmlns="http://www.w3.org/2000/svg" viewBox="0 0 32 32"><title>To-Do_32x</title><path d="M6.484,11.032,2.342,15.174a1.168,1.168,0,0,0,0,1.652L8.218,22.7l5.793-5.793L8.136,11.032A1.168,1.168,0,0,0,6.484,11.032Z" fill="#185abd"/><path d="M29.658,9.38,25.516,5.239a1.168,1.168,0,0,0-1.652,0L18.9,10.206h0L13.1,16h0L8.136,20.967a1.168,1.168,0,0,0,0,1.652l4.141,4.142a1.168,1.168,0,0,0,1.652,0L18.9,21.793h0L24.69,16l4.968-4.968A1.168,1.168,0,0,0,29.658,9.38Z" fill="#41a5ee"/><rect width="32" height="32" fill="none"/></svg>