<svg xmlns="http://www.w3.org/2000/svg" viewBox="0 0 16 16"><title>To-Do_16x</title><path d="M2.208,5.35.276,7.281a1.016,1.016,0,0,0,0,1.437l3.369,3.368L7.013,8.718,3.645,5.35A1.016,1.016,0,0,0,2.208,5.35Z" fill="#185abd"/><path d="M15.681,3.913,13.749,1.981a1.016,1.016,0,0,0-1.436,0l-2.65,2.65h0L6.3,8h0l-2.65,2.65a1.015,1.015,0,0,0,0,1.436l1.931,1.932a1.016,1.016,0,0,0,1.437,0l2.65-2.65h0L13.031,8l2.65-2.65A1.016,1.016,0,0,0,15.681,3.913Z" fill="#41a5ee"/><rect x="-0.021" width="16" height="16" fill="none"/></svg>