<svg width="16" height="16" viewBox="0 0 16 16" fill="none" xmlns="http://www.w3.org/2000/svg">
<g clip-path="url(#clip0_432_1)">
<mask id="mask0_432_1" style="mask-type:alpha" maskUnits="userSpaceOnUse" x="0" y="0" width="16" height="16">
<path d="M0 4L4 0H15.2C15.6418 0 16 0.358154 16 0.8V12L12 16H0.8C0.358154 16 0 15.6418 0 15.2V4Z" fill="#40E6E8"/>
</mask>
<g mask="url(#mask0_432_1)">
<path d="M12 16L16 12L-5.24537e-07 12C-2.34843e-07 14.2091 1.79086 16 4 16L12 16Z" fill="#974B8B"/>
<path d="M0 12H4V16H0.8C0.358172 16 0 15.6418 0 15.2V12Z" fill="#773C6E"/>
<g filter="url(#filter0_d_432_1)">
<rect width="4" height="16" transform="matrix(4.37114e-08 1 1 -4.37114e-08 0 8)" fill="#D83B01"/>
</g>
<rect y="8" width="4" height="4" fill="#BF3207"/>
<g filter="url(#filter1_d_432_1)">
<rect width="4" height="16" transform="matrix(4.37114e-08 1 1 -4.37114e-08 0 4)" fill="#F18C0A"/>
</g>
<rect y="4" width="4" height="4" fill="#E25A01"/>
<g filter="url(#filter2_d_432_1)">
<path d="M4 4.32451e-07L0 4L16 4V0.8C16 0.358172 15.6418 -1.70597e-08 15.2 0L4 4.32451e-07Z" fill="#FED912"/>
</g>
</g>
</g>
<defs>
<filter id="filter0_d_432_1" x="-5" y="4" width="26" height="14" filterUnits="userSpaceOnUse" color-interpolation-filters="sRGB">
<feFlood flood-opacity="0" result="BackgroundImageFix"/>
<feColorMatrix in="SourceAlpha" type="matrix" values="0 0 0 0 0 0 0 0 0 0 0 0 0 0 0 0 0 0 127 0" result="hardAlpha"/>
<feOffset dy="1"/>
<feGaussianBlur stdDeviation="2.5"/>
<feColorMatrix type="matrix" values="0 0 0 0 0.592157 0 0 0 0 0.294118 0 0 0 0 0.545098 0 0 0 0.6 0"/>
<feBlend mode="multiply" in2="BackgroundImageFix" result="effect1_dropShadow_432_1"/>
<feBlend mode="normal" in="SourceGraphic" in2="effect1_dropShadow_432_1" result="shape"/>
</filter>
<filter id="filter1_d_432_1" x="-5" y="0" width="26" height="14" filterUnits="userSpaceOnUse" color-interpolation-filters="sRGB">
<feFlood flood-opacity="0" result="BackgroundImageFix"/>
<feColorMatrix in="SourceAlpha" type="matrix" values="0 0 0 0 0 0 0 0 0 0 0 0 0 0 0 0 0 0 127 0" result="hardAlpha"/>
<feOffset dy="1"/>
<feGaussianBlur stdDeviation="2.5"/>
<feColorMatrix type="matrix" values="0 0 0 0 0.74902 0 0 0 0 0.196078 0 0 0 0 0.027451 0 0 0 0.8 0"/>
<feBlend mode="multiply" in2="BackgroundImageFix" result="effect1_dropShadow_432_1"/>
<feBlend mode="normal" in="SourceGraphic" in2="effect1_dropShadow_432_1" result="shape"/>
</filter>
<filter id="filter2_d_432_1" x="-6" y="-5" width="28" height="16" filterUnits="userSpaceOnUse" color-interpolation-filters="sRGB">
<feFlood flood-opacity="0" result="BackgroundImageFix"/>
<feColorMatrix in="SourceAlpha" type="matrix" values="0 0 0 0 0 0 0 0 0 0 0 0 0 0 0 0 0 0 127 0" result="hardAlpha"/>
<feOffset dy="1"/>
<feGaussianBlur stdDeviation="3"/>
<feColorMatrix type="matrix" values="0 0 0 0 0.964706 0 0 0 0 0.619608 0 0 0 0 0.0745098 0 0 0 0.8 0"/>
<feBlend mode="multiply" in2="BackgroundImageFix" result="effect1_dropShadow_432_1"/>
<feBlend mode="normal" in="SourceGraphic" in2="effect1_dropShadow_432_1" result="shape"/>
</filter>
<clipPath id="clip0_432_1">
<rect width="16" height="16" fill="white"/>
</clipPath>
</defs>
</svg>
