<svg width="32" height="32" viewBox="0 0 32 32" fill="none" xmlns="http://www.w3.org/2000/svg">
<g clip-path="url(#clip0_432_13)">
<mask id="mask0_432_13" style="mask-type:alpha" maskUnits="userSpaceOnUse" x="0" y="0" width="32" height="32">
<path d="M0 8L8 0H30.4C31.2837 0 32 0.716309 32 1.6V24L24 32H1.6C0.716309 32 0 31.2837 0 30.4V8Z" fill="#40E6E8"/>
</mask>
<g mask="url(#mask0_432_13)">
<path d="M24 32L32 24L-1.04907e-06 24L-5.24537e-07 28C-2.34843e-07 30.2091 1.79086 32 4 32L24 32Z" fill="#974B8B"/>
<path d="M0 24H8V32H1.6C0.716344 32 0 31.2837 0 30.4V24Z" fill="#773C6E"/>
<g filter="url(#filter0_d_432_13)">
<rect width="8" height="32" transform="matrix(4.37114e-08 1 1 -4.37114e-08 0 16)" fill="#D83B01"/>
</g>
<rect y="16" width="8" height="8" fill="#BF3207"/>
<g filter="url(#filter1_d_432_13)">
<rect width="8" height="32" transform="matrix(4.37114e-08 1 1 -4.37114e-08 0 8)" fill="#F18C0A"/>
</g>
<rect y="8" width="8" height="8" fill="#E25A01"/>
<g filter="url(#filter2_d_432_13)">
<path d="M8 8.64903e-07L0 8L32 8V1.6C32 0.716344 31.2837 -3.41195e-08 30.4 0L8 8.64903e-07Z" fill="#FED912"/>
</g>
</g>
</g>
<defs>
<filter id="filter0_d_432_13" x="-5" y="12" width="42" height="18" filterUnits="userSpaceOnUse" color-interpolation-filters="sRGB">
<feFlood flood-opacity="0" result="BackgroundImageFix"/>
<feColorMatrix in="SourceAlpha" type="matrix" values="0 0 0 0 0 0 0 0 0 0 0 0 0 0 0 0 0 0 127 0" result="hardAlpha"/>
<feOffset dy="1"/>
<feGaussianBlur stdDeviation="2.5"/>
<feColorMatrix type="matrix" values="0 0 0 0 0.592157 0 0 0 0 0.294118 0 0 0 0 0.545098 0 0 0 0.6 0"/>
<feBlend mode="multiply" in2="BackgroundImageFix" result="effect1_dropShadow_432_13"/>
<feBlend mode="normal" in="SourceGraphic" in2="effect1_dropShadow_432_13" result="shape"/>
</filter>
<filter id="filter1_d_432_13" x="-5" y="4" width="42" height="18" filterUnits="userSpaceOnUse" color-interpolation-filters="sRGB">
<feFlood flood-opacity="0" result="BackgroundImageFix"/>
<feColorMatrix in="SourceAlpha" type="matrix" values="0 0 0 0 0 0 0 0 0 0 0 0 0 0 0 0 0 0 127 0" result="hardAlpha"/>
<feOffset dy="1"/>
<feGaussianBlur stdDeviation="2.5"/>
<feColorMatrix type="matrix" values="0 0 0 0 0.74902 0 0 0 0 0.196078 0 0 0 0 0.027451 0 0 0 0.8 0"/>
<feBlend mode="multiply" in2="BackgroundImageFix" result="effect1_dropShadow_432_13"/>
<feBlend mode="normal" in="SourceGraphic" in2="effect1_dropShadow_432_13" result="shape"/>
</filter>
<filter id="filter2_d_432_13" x="-6" y="-5" width="44" height="20" filterUnits="userSpaceOnUse" color-interpolation-filters="sRGB">
<feFlood flood-opacity="0" result="BackgroundImageFix"/>
<feColorMatrix in="SourceAlpha" type="matrix" values="0 0 0 0 0 0 0 0 0 0 0 0 0 0 0 0 0 0 127 0" result="hardAlpha"/>
<feOffset dy="1"/>
<feGaussianBlur stdDeviation="3"/>
<feColorMatrix type="matrix" values="0 0 0 0 0.964706 0 0 0 0 0.619608 0 0 0 0 0.0745098 0 0 0 0.8 0"/>
<feBlend mode="multiply" in2="BackgroundImageFix" result="effect1_dropShadow_432_13"/>
<feBlend mode="normal" in="SourceGraphic" in2="effect1_dropShadow_432_13" result="shape"/>
</filter>
<clipPath id="clip0_432_13">
<rect width="32" height="32" fill="white"/>
</clipPath>
</defs>
</svg>
