<svg xmlns="http://www.w3.org/2000/svg" fill="none" viewBox="0 0 24 24"><path fill="url(#prefix__a)" d="M22 12.193V5.046C11.856 9.01 8.147 12.037 9.156 21.583c.05.472.33.896.762 1.096.8.37 1.523.575 2.082.575 2.857 0 10-5.337 10-11.06z"/><path fill="url(#prefix__b)" fill-opacity=".6" d="M22 12.193V5.046C11.856 9.01 8.147 12.037 9.156 21.583c.05.472.33.896.762 1.096.8.37 1.523.575 2.082.575 2.857 0 10-5.337 10-11.06z"/><path fill="url(#prefix__c)" d="M12 .745c1.923 0 5.787.972 8.109 1.608.216.06.42.117.607.171A1.797 1.797 0 0122 4.266v1.182c-.23 5.266-1.917 6.797-6.627 10.59a64.767 64.767 0 01-1.9 1.597c-.924.757-1.869 1.53-2.811 2.423a1.87 1.87 0 00.634 3.11 5.514 5.514 0 01-.546-.154c-1.722-.578-4.048-2.15-5.868-4.24C3.447 9.832 6.26 5.449 12 .746z"/><path fill="url(#prefix__d)" fill-opacity=".7" d="M12 .745c1.923 0 5.787.972 8.109 1.608.216.06.42.117.607.171A1.797 1.797 0 0122 4.266v1.182c-.23 5.266-1.917 6.797-6.627 10.59a64.767 64.767 0 01-1.9 1.597c-.924.757-1.869 1.53-2.811 2.423a1.87 1.87 0 00.634 3.11 5.514 5.514 0 01-.546-.154c-1.722-.578-4.048-2.15-5.868-4.24C3.447 9.832 6.26 5.449 12 .746z"/><path fill="url(#prefix__e)" fill-opacity=".7" d="M12 .745c1.923 0 5.787.972 8.109 1.608.216.06.42.117.607.171A1.797 1.797 0 0122 4.266v1.182c-.23 5.266-1.917 6.797-6.627 10.59a64.767 64.767 0 01-1.9 1.597c-.924.757-1.869 1.53-2.811 2.423a1.87 1.87 0 00.634 3.11 5.514 5.514 0 01-.546-.154c-1.722-.578-4.048-2.15-5.868-4.24C3.447 9.832 6.26 5.449 12 .746z"/><path fill="url(#prefix__f)" fill-opacity=".5" d="M12 .745c1.923 0 5.787.972 8.109 1.608.216.06.42.117.607.171A1.797 1.797 0 0122 4.266v1.182c-.23 5.266-1.917 6.797-6.627 10.59a64.767 64.767 0 01-1.9 1.597c-.924.757-1.869 1.53-2.811 2.423a1.87 1.87 0 00.634 3.11 5.514 5.514 0 01-.546-.154c-1.722-.578-4.048-2.15-5.868-4.24C3.447 9.832 6.26 5.449 12 .746z"/><path fill="url(#prefix__g)" d="M3.338 2.506C5.546 1.89 9.914.746 12 .746c.15 0 .312.005.484.017a3.763 3.763 0 012.859 5.685c-.73 1.455-1.925 2.598-3.743 4.095-.523.43-1.122.905-1.719 1.378-.564.447-1.127.893-1.622 1.299-1.202.986-1.936 1.588-2.34 2.344a3.745 3.745 0 00-.609 2.052c0 1.108.48 2.105 1.242 2.793l.073.08.02.03a17.437 17.437 0 01-.716-.649C3.786 17.82 2 15.055 2 12.193V4.286c0-.829.54-1.556 1.338-1.78z"/><path fill="url(#prefix__h)" fill-opacity=".8" d="M3.338 2.506C5.546 1.89 9.914.746 12 .746c.15 0 .312.005.484.017a3.763 3.763 0 012.859 5.685c-.73 1.455-1.925 2.598-3.743 4.095-.523.43-1.122.905-1.719 1.378-.564.447-1.127.893-1.622 1.299-1.202.986-1.936 1.588-2.34 2.344a3.745 3.745 0 00-.609 2.052c0 1.108.48 2.105 1.242 2.793l.073.08.02.03a17.437 17.437 0 01-.716-.649C3.786 17.82 2 15.055 2 12.193V4.286c0-.829.54-1.556 1.338-1.78z"/><path fill="url(#prefix__i)" fill-opacity=".5" d="M3.338 2.506C5.546 1.89 9.914.746 12 .746c.15 0 .312.005.484.017a3.763 3.763 0 012.859 5.685c-.73 1.455-1.925 2.598-3.743 4.095-.523.43-1.122.905-1.719 1.378-.564.447-1.127.893-1.622 1.299-1.202.986-1.936 1.588-2.34 2.344a3.745 3.745 0 00-.609 2.052c0 1.108.48 2.105 1.242 2.793l.073.08.02.03a17.437 17.437 0 01-.716-.649C3.786 17.82 2 15.055 2 12.193V4.286c0-.829.54-1.556 1.338-1.78z"/><defs><radialGradient id="prefix__b" cx="0" cy="0" r="1" gradientTransform="matrix(7.56153 9.10403 -27.21716 22.60575 13.528 14.15)" gradientUnits="userSpaceOnUse"><stop offset=".228" stop-color="#003375"/><stop offset=".434" stop-color="#003375" stop-opacity=".1"/></radialGradient><radialGradient id="prefix__c" cx="0" cy="0" r="1" gradientTransform="matrix(-18.671 32.8882 -16.456 -20.252 22.654 -5.371)" gradientUnits="userSpaceOnUse"><stop offset=".165" stop-color="#23C0FE"/><stop offset=".534" stop-color="#1C91FF"/></radialGradient><radialGradient id="prefix__d" cx="0" cy="0" r="1" gradientTransform="rotate(43.382 -5.385 16.41) scale(6.29718 11.2051)" gradientUnits="userSpaceOnUse"><stop offset=".144" stop-color="#1B44B1"/><stop offset="1" stop-color="#045ED1" stop-opacity="0"/></radialGradient><radialGradient id="prefix__e" cx="0" cy="0" r="1" gradientTransform="matrix(12.42684 6.8582 -10.0525 18.2148 19.273 12.938)" gradientUnits="userSpaceOnUse"><stop offset=".728" stop-color="#045ED1" stop-opacity="0"/><stop offset=".951" stop-color="#1B44B1"/></radialGradient><radialGradient id="prefix__f" cx="0" cy="0" r="1" gradientTransform="rotate(-111.097 9.46 -1.337) scale(22.9907 17.5736)" gradientUnits="userSpaceOnUse"><stop offset=".642" stop-color="#11A7FF" stop-opacity="0"/><stop offset=".796" stop-color="#6AB3FF"/></radialGradient><radialGradient id="prefix__g" cx="0" cy="0" r="1" gradientTransform="matrix(-16.4602 22.1521 -17.4239 -28.2226 15.88 -.322)" gradientUnits="userSpaceOnUse"><stop stop-color="#92EEFE"/><stop offset=".213" stop-color="#35DDFF"/><stop offset=".612" stop-color="#15BDFB"/><stop offset=".803" stop-color="#08B1F9"/></radialGradient><radialGradient id="prefix__i" cx="0" cy="0" r="1" gradientTransform="matrix(.86064 -21.6483 11.5219 -.39304 10.472 3.963)" gradientUnits="userSpaceOnUse"><stop offset=".658" stop-color="#92DEFF" stop-opacity="0"/><stop offset=".852" stop-color="#92DEFF"/></radialGradient><linearGradient id="prefix__a" x1="20.972" x2="7.689" y1="11.589" y2="22.235" gradientUnits="userSpaceOnUse"><stop offset=".716" stop-color="#143DE0"/><stop offset=".978" stop-color="#003375"/></linearGradient><linearGradient id="prefix__h" x1="9.481" x2="2" y1="8.597" y2="8.597" gradientUnits="userSpaceOnUse"><stop offset=".111" stop-color="#22CBFD" stop-opacity="0"/><stop offset=".971" stop-color="#92DEFF"/></linearGradient></defs></svg>