<svg xmlns="http://www.w3.org/2000/svg" viewBox="0 0 48 48"><defs><linearGradient id="a" x1="5.822" y1="11.568" x2="20.178" y2="36.432" gradientUnits="userSpaceOnUse"><stop offset="0" stop-color="#1784d9"/><stop offset=".5" stop-color="#107ad5"/><stop offset="1" stop-color="#0a63c9"/></linearGradient></defs><path d="M16.862 17.286a1.141 1.141 0 0 0-.054 1.511 8.083 8.083 0 0 1 1.439 2.876L30 22l8.847-5.826-.021-.085a29.183 29.183 0 0 0-4.952-10.135Q32.988 4.781 32 3.711a1.087 1.087 0 0 0-1.57-.031z" fill="#28a8ea"/><path d="M44.176 15.9a1.083 1.083 0 0 0-1.336-.8l-24.593 6.572a8.2 8.2 0 0 1 .006 4.227l9.463 5.522 11.153.021 3.965 1.066a1.084 1.084 0 0 0 1.338-.8 35.023 35.023 0 0 0 0-15.812z" fill="#0f78d4"/><path d="M16.876 30.28a1.143 1.143 0 0 1-.313-.785 1.165 1.165 0 0 1 .268-.725 8.138 8.138 0 0 0 1.422-2.87l20.616 5.543a29.414 29.414 0 0 1-6.843 12.372 1.087 1.087 0 0 1-1.564.03z" fill="#0358a7"/><path d="M26 13.83v21.34a1.841 1.841 0 0 1-1.14 1.69 1.772 1.772 0 0 1-.69.14h-.56l-1.05-1.05-4.19-4.18a9.534 9.534 0 0 0 1.79-2.55 2.557 2.557 0 0 0 .11-.24 13.027 13.027 0 0 0 .57-1.66 13.07 13.07 0 0 0 0-6.65 13.051 13.051 0 0 0-.56-1.63 12.4 12.4 0 0 0-1.96-3.21L21.14 13l.99-1h2.04A1.837 1.837 0 0 1 26 13.83z" opacity=".1"/><path d="M25 14.83v21.34a1.736 1.736 0 0 1-.14.69 1.869 1.869 0 0 1-.61.78l-1.69-1.69-4.19-4.18a9.534 9.534 0 0 0 1.79-2.55 2.557 2.557 0 0 0 .11-.24 13.027 13.027 0 0 0 .57-1.66 13.07 13.07 0 0 0 0-6.65 13.051 13.051 0 0 0-.56-1.63 12.4 12.4 0 0 0-1.96-3.21L21.14 13h2.03A1.844 1.844 0 0 1 25 14.83z" opacity=".2"/><path d="M25 14.83v19.34A1.844 1.844 0 0 1 23.17 36h-.56l-.05-.05-4.19-4.18a9.534 9.534 0 0 0 1.79-2.55 2.557 2.557 0 0 0 .11-.24 13.027 13.027 0 0 0 .57-1.66 13.07 13.07 0 0 0 0-6.65 13.051 13.051 0 0 0-.56-1.63 12.4 12.4 0 0 0-1.96-3.21L21.14 13h2.03A1.844 1.844 0 0 1 25 14.83z" opacity=".2"/><path d="M24 14.83v19.34a1.823 1.823 0 0 1-1.44 1.78l-4.19-4.18a9.534 9.534 0 0 0 1.79-2.55 2.557 2.557 0 0 0 .11-.24 13.027 13.027 0 0 0 .57-1.66 13.07 13.07 0 0 0 0-6.65 13.051 13.051 0 0 0-.56-1.63 12.4 12.4 0 0 0-1.96-3.21L21.14 13h1.03A1.844 1.844 0 0 1 24 14.83z" opacity=".2"/><rect x="2" y="13" width="22" height="22" rx="1.833" fill="url(#a)"/><path d="M12.771 23.035a4.566 4.566 0 0 1 .294.79h.027a3.78 3.78 0 0 1 .285-.771l2.665-5.019a1.171 1.171 0 0 1 1.035-.623 1.172 1.172 0 0 1 1.015 1.756l-3.687 6.417a1.173 1.173 0 0 0-.155.584v3.247a1.172 1.172 0 0 1-1.172 1.172h-.238a1.172 1.172 0 0 1-1.172-1.172v-3.209a1.164 1.164 0 0 0-.149-.571L7.9 19.155a1.172 1.172 0 0 1 1.023-1.743h.231a1.174 1.174 0 0 1 1.041.634z" fill="#fff"/><path fill="none" d="M0 0h48v48H0z"/></svg>