<svg xmlns="http://www.w3.org/2000/svg" viewBox="0 0 32 32"><path d="M25.72 10.89l-.03.03-5.09 4.49-3.6-.85-2.75-.64-.07-.02a9.21 9.21 0 0 0-.37-1.16 8.11 8.11 0 0 0-1.54-2.38.4.4 0 0 1-.1-.26.164.164 0 0 1 .02-.1.284.284 0 0 1 .09-.17l7.63-7.61a.74.74 0 0 1 1.07.02 20.244 20.244 0 0 1 3.79 5.87 22.769 22.769 0 0 1 .95 2.78z" fill="#28a8ea"/><path d="M30 16a22.7 22.7 0 0 1-.62 5.28.742.742 0 0 1-.92.53l-2.68-.7h-.06l-5.76.2L17 19.65l-2.71-1.52-.05-.03a7.77 7.77 0 0 0 .29-2.1 8.026 8.026 0 0 0-.28-2.08c0-.01-.01-.02-.01-.03l2.76-.72 8.69-2.25 2.77-.72a.737.737 0 0 1 .92.53A22.674 22.674 0 0 1 30 16z" fill="#0078d4"/><path d="M25.72 21.11a22.769 22.769 0 0 1-.95 2.78 20.244 20.244 0 0 1-3.79 5.87.752.752 0 0 1-1.08.02L14.11 24l-1.83-1.83a.369.369 0 0 1-.11-.27.4.4 0 0 1 .1-.26 8.11 8.11 0 0 0 1.54-2.38 9.761 9.761 0 0 0 .37-1.16l.11.03 2.71.71z" fill="#0358a7"/><path d="M17 11v11.83A1.178 1.178 0 0 1 15.83 24h-1.72l-1.83-1.83a.369.369 0 0 1-.11-.27.4.4 0 0 1 .1-.26 8.11 8.11 0 0 0 1.54-2.38 9.761 9.761 0 0 0 .37-1.16l.11.03-.05-.03a7.77 7.77 0 0 0 .29-2.1 8.026 8.026 0 0 0-.28-2.08l-.07-.02a9.21 9.21 0 0 0-.37-1.16 8.11 8.11 0 0 0-1.54-2.38.4.4 0 0 1-.1-.26.164.164 0 0 1 .02-.1H16a1 1 0 0 1 1 1z" opacity=".5"/><rect x="2" y="9" width="14" height="14" rx="1.167" fill="#0078d4"/><path d="M8.847 15.357a2.912 2.912 0 0 1 .2.527h.018a2.577 2.577 0 0 1 .19-.515l1.777-3.346a.781.781 0 0 1 .69-.415.781.781 0 0 1 .677 1.17l-2.462 4.279a.779.779 0 0 0-.1.389v2.165a.781.781 0 0 1-.781.781h-.163a.781.781 0 0 1-.781-.781v-2.14a.784.784 0 0 0-.1-.381L5.6 12.77a.782.782 0 0 1 .682-1.162h.154a.781.781 0 0 1 .694.423z" fill="#fff"/></svg>