<svg xmlns="http://www.w3.org/2000/svg" viewBox="0 0 24 24"><title>Yammer_24x</title><path d="M19.63,7.98l-.03.03-3.99,3.53L14,11.16l-3.37-.8-.06-.01a7.4,7.4,0,0,0-.29-.91A6.391,6.391,0,0,0,9.07,7.57a.323.323,0,0,1-.08-.21.252.252,0,0,1,.09-.2l5.99-5.99a.58.58,0,0,1,.84.02A15.729,15.729,0,0,1,18.89,5.8,15.545,15.545,0,0,1,19.63,7.98Z" fill="#28a8ea"/><path d="M23,12a17.451,17.451,0,0,1-.49,4.15.587.587,0,0,1-.72.42l-2.1-.55h-.06l-4.52.15L14,15.55l-3.34-1.88-.04-.02A6.132,6.132,0,0,0,10.84,12a6.413,6.413,0,0,0-.21-1.64c-.01-.01-.01-.01-.01-.02L14,9.46l5.6-1.45,2.19-.57a.587.587,0,0,1,.72.42A17.368,17.368,0,0,1,23,12Z" fill="#0078d4"/><path d="M19.63,16.02a15.545,15.545,0,0,1-.74,2.18,15.6,15.6,0,0,1-2.98,4.61.58.58,0,0,1-.84.02L9.08,16.84a.252.252,0,0,1-.09-.2.323.323,0,0,1,.08-.21,6.391,6.391,0,0,0,1.21-1.87,7.4,7.4,0,0,0,.29-.91l.09.02,3.34.88Z" fill="#0358a7"/><path d="M14,8v9.53A1.472,1.472,0,0,1,12.53,19H11.24L9.08,16.84a.252.252,0,0,1-.09-.2.323.323,0,0,1,.08-.21,6.391,6.391,0,0,0,1.21-1.87,7.4,7.4,0,0,0,.29-.91l.09.02-.04-.02A6.132,6.132,0,0,0,10.84,12a6.413,6.413,0,0,0-.21-1.64l-.06-.01a7.4,7.4,0,0,0-.29-.91A6.391,6.391,0,0,0,9.07,7.57a.323.323,0,0,1-.08-.21.252.252,0,0,1,.09-.2L9.24,7H13A1,1,0,0,1,14,8Z" opacity="0.5"/><path d="M2.11,6h9.78A1.11,1.11,0,0,1,13,7.11V17a1,1,0,0,1-1,1H2.11A1.11,1.11,0,0,1,1,16.89V7.11A1.11,1.11,0,0,1,2.11,6Z" fill="#0078d4"/><path d="M6.869,11.449a2.588,2.588,0,0,1,.168.451h.016a2.179,2.179,0,0,1,.162-.441L8.738,8.591a.669.669,0,0,1,.592-.355h0a.67.67,0,0,1,.58,1L7.8,12.906a.67.67,0,0,0-.089.333V15.1a.669.669,0,0,1-.669.669H6.908a.669.669,0,0,1-.669-.669V13.261a.663.663,0,0,0-.085-.326l-2.068-3.7a.669.669,0,0,1,.584-1H4.8a.668.668,0,0,1,.6.362Z" fill="#fff"/></svg>