<svg xmlns="http://www.w3.org/2000/svg" viewBox="0 0 16 16"><title>Sway_16x</title><path d="M16,1a1,1,0,0,0-1-1H4A1,1,0,0,0,3,1V12l5.5,1.5L16,12Z" fill="#37c6d0"/><circle cx="13" cy="3" r="1.25" fill="#86f2f2"/><rect width="16" height="16" fill="none"/><path d="M16,9v5H5l7.29-7.291a1.01,1.01,0,0,1,1.42,0Z" fill="#038387"/><path d="M3,12v3a1,1,0,0,0,1,1H15a1,1,0,0,0,1-1V12Z" fill="#036c70"/><path d="M11,5v7a2.006,2.006,0,0,1-2,2H3V4h7A1,1,0,0,1,11,5Z" opacity="0.5"/><rect y="3" width="10" height="10" rx="1" fill="#038387"/><path d="M3.55,7.887a1.681,1.681,0,0,1-.512-.558,1.566,1.566,0,0,1-.178-.764,1.5,1.5,0,0,1,.332-.989,1.94,1.94,0,0,1,.881-.593,3.6,3.6,0,0,1,1.2-.193,4.471,4.471,0,0,1,1.586.229V6.175a2.47,2.47,0,0,0-.718-.3,3.389,3.389,0,0,0-.839-.1,1.765,1.765,0,0,0-.862.189.584.584,0,0,0-.342.534.548.548,0,0,0,.145.379,1.318,1.318,0,0,0,.39.288q.246.126.732.333a.769.769,0,0,1,.105.044A5.957,5.957,0,0,1,6.4,8,1.56,1.56,0,0,1,7.14,9.426a1.629,1.629,0,0,1-.311,1.031,1.744,1.744,0,0,1-.83.576,3.67,3.67,0,0,1-1.184.177,6.022,6.022,0,0,1-1.072-.091,3.582,3.582,0,0,1-.87-.26V9.639a2.755,2.755,0,0,0,.881.432,3.329,3.329,0,0,0,.969.161,1.628,1.628,0,0,0,.879-.193A.613.613,0,0,0,5.9,9.5a.589.589,0,0,0-.166-.416,1.683,1.683,0,0,0-.457-.329q-.293-.151-.862-.4A4.823,4.823,0,0,1,3.55,7.887Z" fill="#fff"/></svg>