<svg width="32" height="32" viewBox="0 0 32 32" fill="none" xmlns="http://www.w3.org/2000/svg">
<path d="M23.5547 3.45019C25.0888 3.15216 26.594 4.15055 26.917 5.67968L26.9873 6.00976C27.3102 7.53886 26.328 9.02002 24.7939 9.31835L6.5127 12.8721C5.52058 13.0649 4.54674 12.4195 4.33789 11.4307L4.06152 10.1221C3.73858 8.59284 4.72065 7.11169 6.25488 6.81347L23.5547 3.45019Z" fill="#7611F0"/>
<path d="M23.5547 3.45019C25.0888 3.15216 26.594 4.15055 26.917 5.67968L26.9873 6.00976C27.3102 7.53886 26.328 9.02002 24.7939 9.31835L6.5127 12.8721C5.52058 13.0649 4.54674 12.4195 4.33789 11.4307L4.06152 10.1221C3.73858 8.59284 4.72065 7.11169 6.25488 6.81347L23.5547 3.45019Z" fill="url(#paint0_radial_389_5110)" fill-opacity="0.9"/>
<path d="M23.5547 3.45019C25.0888 3.15216 26.594 4.15055 26.917 5.67968L26.9873 6.00976C27.3102 7.53886 26.328 9.02002 24.7939 9.31835L6.5127 12.8721C5.52058 13.0649 4.54674 12.4195 4.33789 11.4307L4.06152 10.1221C3.73858 8.59284 4.72065 7.11169 6.25488 6.81347L23.5547 3.45019Z" fill="url(#paint1_radial_389_5110)" fill-opacity="0.6"/>
<path d="M23.5547 3.45019C25.0888 3.15216 26.594 4.15055 26.917 5.67968L26.9873 6.00976C27.3102 7.53886 26.328 9.02002 24.7939 9.31835L6.5127 12.8721C5.52058 13.0649 4.54674 12.4195 4.33789 11.4307L4.06152 10.1221C3.73858 8.59284 4.72065 7.11169 6.25488 6.81347L23.5547 3.45019Z" fill="url(#paint2_radial_389_5110)" fill-opacity="0.4"/>
<path d="M4 24.4961C4.00001 26.4291 5.56701 27.9961 7.5 27.9961H25.17C26.733 27.9961 28 26.7291 28 25.1661V24.0873C28 22.3614 26.6009 20.9623 24.875 20.9623H7.96664C5.77592 20.9623 4 19.1864 4 16.9957V24.4961Z" fill="#7611F0"/>
<path d="M4 24.4961C4.00001 26.4291 5.56701 27.9961 7.5 27.9961H25.17C26.733 27.9961 28 26.7291 28 25.1661V24.0873C28 22.3614 26.6009 20.9623 24.875 20.9623H7.96664C5.77592 20.9623 4 19.1864 4 16.9957V24.4961Z" fill="#A966FF" fill-opacity="0.2"/>
<path d="M4 24.4961C4.00001 26.4291 5.56701 27.9961 7.5 27.9961H25.17C26.733 27.9961 28 26.7291 28 25.1661V24.0873C28 22.3614 26.6009 20.9623 24.875 20.9623H7.96664C5.77592 20.9623 4 19.1864 4 16.9957V24.4961Z" fill="url(#paint3_linear_389_5110)" fill-opacity="0.4"/>
<path d="M4 24.4961C4.00001 26.4291 5.56701 27.9961 7.5 27.9961H25.17C26.733 27.9961 28 26.7291 28 25.1661V24.0873C28 22.3614 26.6009 20.9623 24.875 20.9623H7.96664C5.77592 20.9623 4 19.1864 4 16.9957V24.4961Z" fill="url(#paint4_linear_389_5110)" fill-opacity="0.15"/>
<path d="M4 24.4961C4.00001 26.4291 5.56701 27.9961 7.5 27.9961H25.17C26.733 27.9961 28 26.7291 28 25.1661V24.0873C28 22.3614 26.6009 20.9623 24.875 20.9623H7.96664C5.77592 20.9623 4 19.1864 4 16.9957V24.4961Z" fill="url(#paint5_linear_389_5110)" fill-opacity="0.3"/>
<path d="M4 24.4961C4.00001 26.4291 5.56701 27.9961 7.5 27.9961H25.17C26.733 27.9961 28 26.7291 28 25.1661V24.0873C28 22.3614 26.6009 20.9623 24.875 20.9623H7.96664C5.77592 20.9623 4 19.1864 4 16.9957V24.4961Z" fill="url(#paint6_linear_389_5110)" fill-opacity="0.2"/>
<path d="M4 14.6527C4 16.3096 5.34315 17.6527 7 17.6527H25.17C26.733 17.6527 28 18.9198 28 20.4827V21.7363V15.1287C28 13.5657 26.733 12.2987 25.17 12.2987H7C5.34314 12.2987 4 10.9555 4 9.29868V8.54187V14.6527Z" fill="#BC7FFF"/>
<path d="M4 14.6527C4 16.3096 5.34315 17.6527 7 17.6527H25.17C26.733 17.6527 28 18.9198 28 20.4827V21.7363V15.1287C28 13.5657 26.733 12.2987 25.17 12.2987H7C5.34314 12.2987 4 10.9555 4 9.29868V8.54187V14.6527Z" fill="url(#paint7_linear_389_5110)"/>
<path d="M4 14.6527C4 16.3096 5.34315 17.6527 7 17.6527H25.17C26.733 17.6527 28 18.9198 28 20.4827V21.7363V15.1287C28 13.5657 26.733 12.2987 25.17 12.2987H7C5.34314 12.2987 4 10.9555 4 9.29868V8.54187V14.6527Z" fill="url(#paint8_linear_389_5110)" fill-opacity="0.8"/>
<path d="M4 14.6527C4 16.3096 5.34315 17.6527 7 17.6527H25.17C26.733 17.6527 28 18.9198 28 20.4827V21.7363V15.1287C28 13.5657 26.733 12.2987 25.17 12.2987H7C5.34314 12.2987 4 10.9555 4 9.29868V8.54187V14.6527Z" fill="url(#paint9_radial_389_5110)"/>
<path d="M4 19.2631C4 21.1961 5.567 22.7631 7.5 22.7631H25.17C26.733 22.7631 28 24.0305 28 25.5935C28 25.6569 28 25.719 28 25.7796C28 27.8083 28 23.4734 28 20.3506C28 18.7876 26.733 17.5223 25.17 17.5223H7.5C5.567 17.5223 4 15.9553 4 14.0223V13.5625V19.2631Z" fill="#974CFF"/>
<path d="M4 19.2631C4 21.1961 5.567 22.7631 7.5 22.7631H25.17C26.733 22.7631 28 24.0305 28 25.5935C28 25.6569 28 25.719 28 25.7796C28 27.8083 28 23.4734 28 20.3506C28 18.7876 26.733 17.5223 25.17 17.5223H7.5C5.567 17.5223 4 15.9553 4 14.0223V13.5625V19.2631Z" fill="#A966FF" fill-opacity="0.35"/>
<path d="M4 19.2631C4 21.1961 5.567 22.7631 7.5 22.7631H25.17C26.733 22.7631 28 24.0305 28 25.5935C28 25.6569 28 25.719 28 25.7796C28 27.8083 28 23.4734 28 20.3506C28 18.7876 26.733 17.5223 25.17 17.5223H7.5C5.567 17.5223 4 15.9553 4 14.0223V13.5625V19.2631Z" fill="url(#paint10_linear_389_5110)" fill-opacity="0.4"/>
<path d="M4 19.2631C4 21.1961 5.567 22.7631 7.5 22.7631H25.17C26.733 22.7631 28 24.0305 28 25.5935C28 25.6569 28 25.719 28 25.7796C28 27.8083 28 23.4734 28 20.3506C28 18.7876 26.733 17.5223 25.17 17.5223H7.5C5.567 17.5223 4 15.9553 4 14.0223V13.5625V19.2631Z" fill="url(#paint11_linear_389_5110)" fill-opacity="0.4"/>
<path d="M4 19.2631C4 21.1961 5.567 22.7631 7.5 22.7631H25.17C26.733 22.7631 28 24.0305 28 25.5935C28 25.6569 28 25.719 28 25.7796C28 27.8083 28 23.4734 28 20.3506C28 18.7876 26.733 17.5223 25.17 17.5223H7.5C5.567 17.5223 4 15.9553 4 14.0223V13.5625V19.2631Z" fill="url(#paint12_linear_389_5110)" fill-opacity="0.6"/>
<defs>
<radialGradient id="paint0_radial_389_5110" cx="0" cy="0" r="1" gradientUnits="userSpaceOnUse" gradientTransform="translate(15.6148 -7.34228) rotate(151.136) scale(21.6419 25.9638)">
<stop offset="0.625" stop-color="#974CFF"/>
<stop offset="1" stop-color="#5000B0"/>
</radialGradient>
<radialGradient id="paint1_radial_389_5110" cx="0" cy="0" r="1" gradientUnits="userSpaceOnUse" gradientTransform="translate(27.6207 1.49107) rotate(155.058) scale(19.0738 43.4903)">
<stop offset="0.146784" stop-color="#DE91FF"/>
<stop offset="0.677885" stop-color="#D373FC" stop-opacity="0"/>
</radialGradient>
<radialGradient id="paint2_radial_389_5110" cx="0" cy="0" r="1" gradientUnits="userSpaceOnUse" gradientTransform="translate(17.6955 -2.03539) rotate(125.185) scale(12.2272 31.068)">
<stop stop-color="#FFC7A3"/>
<stop offset="0.830508" stop-color="#DE67FD" stop-opacity="0"/>
</radialGradient>
<linearGradient id="paint3_linear_389_5110" x1="19.4001" y1="22.4959" x2="18.6851" y2="26.6606" gradientUnits="userSpaceOnUse">
<stop stop-color="#330072"/>
<stop offset="1" stop-color="#7611F0" stop-opacity="0"/>
</linearGradient>
<linearGradient id="paint4_linear_389_5110" x1="9.38595" y1="22.5036" x2="9.38596" y2="28.6656" gradientUnits="userSpaceOnUse">
<stop stop-color="#9136F2" stop-opacity="0"/>
<stop offset="0.836047" stop-color="#B76AFF"/>
</linearGradient>
<linearGradient id="paint5_linear_389_5110" x1="10.5452" y1="22.1017" x2="3.99895" y2="22.1599" gradientUnits="userSpaceOnUse">
<stop stop-color="#9136F2" stop-opacity="0"/>
<stop offset="0.836047" stop-color="#B76AFF"/>
</linearGradient>
<linearGradient id="paint6_linear_389_5110" x1="20.7737" y1="22.1579" x2="30.7244" y2="30.2462" gradientUnits="userSpaceOnUse">
<stop stop-color="#9136F2" stop-opacity="0"/>
<stop offset="0.836047" stop-color="#B76AFF"/>
</linearGradient>
<linearGradient id="paint7_linear_389_5110" x1="10.5452" y1="14.7337" x2="3.99893" y2="14.7337" gradientUnits="userSpaceOnUse">
<stop stop-color="#BC80FF" stop-opacity="0"/>
<stop offset="0.836047" stop-color="#ECB4FF"/>
</linearGradient>
<linearGradient id="paint8_linear_389_5110" x1="20.0487" y1="14.7337" x2="28" y2="14.7337" gradientUnits="userSpaceOnUse">
<stop stop-color="#BC7FFF" stop-opacity="0"/>
<stop offset="0.836047" stop-color="#ECB4FF"/>
</linearGradient>
<radialGradient id="paint9_radial_389_5110" cx="0" cy="0" r="1" gradientUnits="userSpaceOnUse" gradientTransform="translate(23.8319 -1.03645) rotate(122.384) scale(14.6229 28.9744)">
<stop stop-color="#FFC7A3"/>
<stop offset="0.830508" stop-color="#DE67FD" stop-opacity="0"/>
</radialGradient>
<linearGradient id="paint10_linear_389_5110" x1="18.2692" y1="13.3432" x2="17.9531" y2="20.8605" gradientUnits="userSpaceOnUse">
<stop stop-color="#6200D5"/>
<stop offset="1" stop-color="#3E008D" stop-opacity="0"/>
</linearGradient>
<linearGradient id="paint11_linear_389_5110" x1="21.4556" y1="19.3784" x2="28.0019" y2="19.3784" gradientUnits="userSpaceOnUse">
<stop stop-color="#9B54FD" stop-opacity="0"/>
<stop offset="0.836047" stop-color="#ECB4FF"/>
</linearGradient>
<linearGradient id="paint12_linear_389_5110" x1="10.5452" y1="19.3784" x2="3.99893" y2="19.3784" gradientUnits="userSpaceOnUse">
<stop stop-color="#944EF6" stop-opacity="0"/>
<stop offset="0.836047" stop-color="#ECB4FF"/>
</linearGradient>
</defs>
</svg>
