<svg width="16" height="16" viewBox="0 0 16 16" fill="none" xmlns="http://www.w3.org/2000/svg">
<path d="M11.9652 1.68522C12.7796 1.53418 13.5733 2.06976 13.7377 2.88151C13.9019 3.6935 13.3745 4.47556 12.56 4.62663L3.67228 6.27409C2.92902 6.41179 2.20492 5.92323 2.05509 5.18229L2.02872 5.05339C1.86454 4.24148 2.39207 3.46043 3.20646 3.30925L11.9652 1.68522Z" fill="#7611F0"/>
<path d="M11.9652 1.68522C12.7796 1.53418 13.5733 2.06976 13.7377 2.88151C13.9019 3.6935 13.3745 4.47556 12.56 4.62663L3.67228 6.27409C2.92902 6.41179 2.20492 5.92323 2.05509 5.18229L2.02872 5.05339C1.86454 4.24148 2.39207 3.46043 3.20646 3.30925L11.9652 1.68522Z" fill="url(#paint0_radial_389_10771)" fill-opacity="0.9"/>
<path d="M11.9652 1.68522C12.7796 1.53418 13.5733 2.06976 13.7377 2.88151C13.9019 3.6935 13.3745 4.47556 12.56 4.62663L3.67228 6.27409C2.92902 6.41179 2.20492 5.92323 2.05509 5.18229L2.02872 5.05339C1.86454 4.24148 2.39207 3.46043 3.20646 3.30925L11.9652 1.68522Z" fill="url(#paint1_radial_389_10771)" fill-opacity="0.6"/>
<path d="M11.9652 1.68522C12.7796 1.53418 13.5733 2.06976 13.7377 2.88151C13.9019 3.6935 13.3745 4.47556 12.56 4.62663L3.67228 6.27409C2.92902 6.41179 2.20492 5.92323 2.05509 5.18229L2.02872 5.05339C1.86454 4.24148 2.39207 3.46043 3.20646 3.30925L11.9652 1.68522Z" fill="url(#paint2_radial_389_10771)" fill-opacity="0.4"/>
<path d="M1.99585 12.5026C1.99585 13.3311 2.66742 14.0026 3.49585 14.0026H12.6662C13.4008 14.0026 13.9962 13.4072 13.9962 12.6726V12.4449C13.9962 11.7104 13.4008 11.1149 12.6662 11.1149H3.32585C2.59131 11.1149 1.99585 10.5194 1.99585 9.7849V9.00092V12.5026Z" fill="#7611F0"/>
<path d="M1.99585 12.5026C1.99585 13.3311 2.66742 14.0026 3.49585 14.0026H12.6662C13.4008 14.0026 13.9962 13.4072 13.9962 12.6726V12.4449C13.9962 11.7104 13.4008 11.1149 12.6662 11.1149H3.32585C2.59131 11.1149 1.99585 10.5194 1.99585 9.7849V9.00092V12.5026Z" fill="#A966FF" fill-opacity="0.2"/>
<path d="M1.99585 12.5026C1.99585 13.3311 2.66742 14.0026 3.49585 14.0026H12.6662C13.4008 14.0026 13.9962 13.4072 13.9962 12.6726V12.4449C13.9962 11.7104 13.4008 11.1149 12.6662 11.1149H3.32585C2.59131 11.1149 1.99585 10.5194 1.99585 9.7849V9.00092V12.5026Z" fill="url(#paint3_linear_389_10771)" fill-opacity="0.4"/>
<path d="M1.99585 12.5026C1.99585 13.3311 2.66742 14.0026 3.49585 14.0026H12.6662C13.4008 14.0026 13.9962 13.4072 13.9962 12.6726V12.4449C13.9962 11.7104 13.4008 11.1149 12.6662 11.1149H3.32585C2.59131 11.1149 1.99585 10.5194 1.99585 9.7849V9.00092V12.5026Z" fill="url(#paint4_linear_389_10771)" fill-opacity="0.15"/>
<path d="M1.99585 12.5026C1.99585 13.3311 2.66742 14.0026 3.49585 14.0026H12.6662C13.4008 14.0026 13.9962 13.4072 13.9962 12.6726V12.4449C13.9962 11.7104 13.4008 11.1149 12.6662 11.1149H3.32585C2.59131 11.1149 1.99585 10.5194 1.99585 9.7849V9.00092V12.5026Z" fill="url(#paint5_linear_389_10771)" fill-opacity="0.3"/>
<path d="M1.99585 12.5026C1.99585 13.3311 2.66742 14.0026 3.49585 14.0026H12.6662C13.4008 14.0026 13.9962 13.4072 13.9962 12.6726V12.4449C13.9962 11.7104 13.4008 11.1149 12.6662 11.1149H3.32585C2.59131 11.1149 1.99585 10.5194 1.99585 9.7849V9.00092V12.5026Z" fill="url(#paint6_linear_389_10771)" fill-opacity="0.2"/>
<path d="M1.99609 7.51932C1.99609 8.25386 2.59156 8.84933 3.32609 8.84933H12.6665C13.401 8.84933 13.9965 9.44479 13.9965 10.1793V11.0256V7.32592C13.9965 6.59138 13.401 5.99592 12.6665 5.99592H3.32609C2.59155 5.99592 1.99609 5.40046 1.99609 4.66592V3.99377V7.51932Z" fill="#BC7FFF"/>
<path d="M1.99609 7.51932C1.99609 8.25386 2.59156 8.84933 3.32609 8.84933H12.6665C13.401 8.84933 13.9965 9.44479 13.9965 10.1793V11.0256V7.32592C13.9965 6.59138 13.401 5.99592 12.6665 5.99592H3.32609C2.59155 5.99592 1.99609 5.40046 1.99609 4.66592V3.99377V7.51932Z" fill="url(#paint7_linear_389_10771)"/>
<path d="M1.99609 7.51932C1.99609 8.25386 2.59156 8.84933 3.32609 8.84933H12.6665C13.401 8.84933 13.9965 9.44479 13.9965 10.1793V11.0256V7.32592C13.9965 6.59138 13.401 5.99592 12.6665 5.99592H3.32609C2.59155 5.99592 1.99609 5.40046 1.99609 4.66592V3.99377V7.51932Z" fill="url(#paint8_linear_389_10771)" fill-opacity="0.8"/>
<path d="M1.99609 7.51932C1.99609 8.25386 2.59156 8.84933 3.32609 8.84933H12.6665C13.401 8.84933 13.9965 9.44479 13.9965 10.1793V11.0256V7.32592C13.9965 6.59138 13.401 5.99592 12.6665 5.99592H3.32609C2.59155 5.99592 1.99609 5.40046 1.99609 4.66592V3.99377V7.51932Z" fill="url(#paint9_radial_389_10771)"/>
<path d="M1.99585 9.82982C1.99585 10.6582 2.66742 11.3298 3.49585 11.3298H12.6662C13.4008 11.3298 13.9962 11.9252 13.9962 12.6598V13.0174V9.98576C13.9962 9.25124 13.4008 8.65577 12.6662 8.65578H3.49585C2.66742 8.65578 1.99585 7.9842 1.99585 7.15578V6.24854V9.82982Z" fill="#974CFF"/>
<path d="M1.99585 9.82982C1.99585 10.6582 2.66742 11.3298 3.49585 11.3298H12.6662C13.4008 11.3298 13.9962 11.9252 13.9962 12.6598V13.0174V9.98576C13.9962 9.25124 13.4008 8.65577 12.6662 8.65578H3.49585C2.66742 8.65578 1.99585 7.9842 1.99585 7.15578V6.24854V9.82982Z" fill="#A966FF" fill-opacity="0.35"/>
<path d="M1.99585 9.82982C1.99585 10.6582 2.66742 11.3298 3.49585 11.3298H12.6662C13.4008 11.3298 13.9962 11.9252 13.9962 12.6598V13.0174V9.98576C13.9962 9.25124 13.4008 8.65577 12.6662 8.65578H3.49585C2.66742 8.65578 1.99585 7.9842 1.99585 7.15578V6.24854V9.82982Z" fill="url(#paint10_linear_389_10771)" fill-opacity="0.4"/>
<path d="M1.99585 9.82982C1.99585 10.6582 2.66742 11.3298 3.49585 11.3298H12.6662C13.4008 11.3298 13.9962 11.9252 13.9962 12.6598V13.0174V9.98576C13.9962 9.25124 13.4008 8.65577 12.6662 8.65578H3.49585C2.66742 8.65578 1.99585 7.9842 1.99585 7.15578V6.24854V9.82982Z" fill="url(#paint11_linear_389_10771)" fill-opacity="0.4"/>
<path d="M1.99585 9.82982C1.99585 10.6582 2.66742 11.3298 3.49585 11.3298H12.6662C13.4008 11.3298 13.9962 11.9252 13.9962 12.6598V13.0174V9.98576C13.9962 9.25124 13.4008 8.65577 12.6662 8.65578H3.49585C2.66742 8.65578 1.99585 7.9842 1.99585 7.15578V6.24854V9.82982Z" fill="url(#paint12_linear_389_10771)" fill-opacity="0.6"/>
<defs>
<radialGradient id="paint0_radial_389_10771" cx="0" cy="0" r="1" gradientUnits="userSpaceOnUse" gradientTransform="translate(8.03124 -3.80111) rotate(151.926) scale(11.0939 13.0913)">
<stop offset="0.625" stop-color="#974CFF"/>
<stop offset="1" stop-color="#5000B0"/>
</radialGradient>
<radialGradient id="paint1_radial_389_10771" cx="0" cy="0" r="1" gradientUnits="userSpaceOnUse" gradientTransform="translate(14.1298 0.678794) rotate(155.782) scale(9.78334 21.9153)">
<stop offset="0.146784" stop-color="#DE91FF"/>
<stop offset="0.677885" stop-color="#D373FC" stop-opacity="0"/>
</radialGradient>
<radialGradient id="paint2_radial_389_10771" cx="0" cy="0" r="1" gradientUnits="userSpaceOnUse" gradientTransform="translate(9.06324 -1.12169) rotate(126.238) scale(6.22373 15.7759)">
<stop stop-color="#FFC7A3"/>
<stop offset="0.830508" stop-color="#DE67FD" stop-opacity="0"/>
</radialGradient>
<linearGradient id="paint3_linear_389_10771" x1="9.69616" y1="11.9322" x2="9.29159" y2="14.1431" gradientUnits="userSpaceOnUse">
<stop stop-color="#330072"/>
<stop offset="1" stop-color="#7611F0" stop-opacity="0"/>
</linearGradient>
<linearGradient id="paint4_linear_389_10771" x1="4.68891" y1="11.9363" x2="4.68891" y2="15.2203" gradientUnits="userSpaceOnUse">
<stop stop-color="#9136F2" stop-opacity="0"/>
<stop offset="0.836047" stop-color="#B76AFF"/>
</linearGradient>
<linearGradient id="paint5_linear_389_10771" x1="5.26854" y1="11.7221" x2="1.99529" y2="11.7494" gradientUnits="userSpaceOnUse">
<stop stop-color="#9136F2" stop-opacity="0"/>
<stop offset="0.836047" stop-color="#B76AFF"/>
</linearGradient>
<linearGradient id="paint6_linear_389_10771" x1="10.383" y1="11.7521" x2="15.6074" y2="15.7363" gradientUnits="userSpaceOnUse">
<stop stop-color="#9136F2" stop-opacity="0"/>
<stop offset="0.836047" stop-color="#B76AFF"/>
</linearGradient>
<linearGradient id="paint7_linear_389_10771" x1="5.26879" y1="7.29364" x2="1.99556" y2="7.29363" gradientUnits="userSpaceOnUse">
<stop stop-color="#BC80FF" stop-opacity="0"/>
<stop offset="0.836047" stop-color="#ECB4FF"/>
</linearGradient>
<linearGradient id="paint8_linear_389_10771" x1="10.0207" y1="7.29363" x2="13.9965" y2="7.29363" gradientUnits="userSpaceOnUse">
<stop stop-color="#BC7FFF" stop-opacity="0"/>
<stop offset="0.836047" stop-color="#ECB4FF"/>
</linearGradient>
<radialGradient id="paint9_radial_389_10771" cx="0" cy="0" r="1" gradientUnits="userSpaceOnUse" gradientTransform="translate(11.9123 -1.11091) rotate(120.755) scale(7.6581 14.7431)">
<stop stop-color="#FFC7A3"/>
<stop offset="0.830508" stop-color="#DE67FD" stop-opacity="0"/>
</radialGradient>
<linearGradient id="paint10_linear_389_10771" x1="9.13068" y1="6.43869" x2="8.95116" y2="10.444" gradientUnits="userSpaceOnUse">
<stop stop-color="#6200D5"/>
<stop offset="1" stop-color="#3E008D" stop-opacity="0"/>
</linearGradient>
<linearGradient id="paint11_linear_389_10771" x1="10.7239" y1="9.6551" x2="13.9971" y2="9.6551" gradientUnits="userSpaceOnUse">
<stop stop-color="#9B54FD" stop-opacity="0"/>
<stop offset="0.836047" stop-color="#ECB4FF"/>
</linearGradient>
<linearGradient id="paint12_linear_389_10771" x1="5.26854" y1="9.6551" x2="1.99532" y2="9.6551" gradientUnits="userSpaceOnUse">
<stop stop-color="#944EF6" stop-opacity="0"/>
<stop offset="0.836047" stop-color="#ECB4FF"/>
</linearGradient>
</defs>
</svg>
