<svg width="32" height="32" viewBox="0 0 32 32" fill="none" xmlns="http://www.w3.org/2000/svg">
<path d="M14 14H23.4999C25.9851 14 27.9999 16.0147 27.9999 18.5V24.5001C27.9999 26.9853 25.9852 29 23.4999 29C21.0147 29 19 26.9853 19 24.5001V18.5C19 16.0147 16.9853 14 14.5 14H14Z" fill="url(#paint0_radial_353_14821)"/>
<path d="M3.99976 16.5C3.99976 14.0147 6.01447 12 8.49976 12H14.5C16.9853 12 19 14.0147 19 16.5V24.5C19 26.9853 21.0147 29 23.5 29H24H11.4998C7.35762 29 3.99976 25.6421 3.99976 21.5V16.5Z" fill="url(#paint1_radial_353_14821)"/>
<path d="M3.99976 16.5C3.99976 14.0147 6.01447 12 8.49976 12H14.5C16.9853 12 19 14.0147 19 16.5V24.5C19 26.9853 21.0147 29 23.5 29H24H11.4998C7.35762 29 3.99976 25.6421 3.99976 21.5V16.5Z" fill="url(#paint2_linear_353_14821)" fill-opacity="0.7"/>
<path d="M3.99976 16.5C3.99976 14.0147 6.01447 12 8.49976 12H14.5C16.9853 12 19 14.0147 19 16.5V24.5C19 26.9853 21.0147 29 23.5 29H24H11.4998C7.35762 29 3.99976 25.6421 3.99976 21.5V16.5Z" fill="url(#paint3_radial_353_14821)" fill-opacity="0.7"/>
<path d="M22.5 12.5C24.5711 12.5 26.25 10.8211 26.25 8.75C26.25 6.67893 24.5711 5 22.5 5C20.4289 5 18.75 6.67893 18.75 8.75C18.75 10.8211 20.4289 12.5 22.5 12.5Z" fill="url(#paint4_radial_353_14821)"/>
<path d="M22.5 12.5C24.5711 12.5 26.25 10.8211 26.25 8.75C26.25 6.67893 24.5711 5 22.5 5C20.4289 5 18.75 6.67893 18.75 8.75C18.75 10.8211 20.4289 12.5 22.5 12.5Z" fill="url(#paint5_radial_353_14821)" fill-opacity="0.46"/>
<path d="M22.5 12.5C24.5711 12.5 26.25 10.8211 26.25 8.75C26.25 6.67893 24.5711 5 22.5 5C20.4289 5 18.75 6.67893 18.75 8.75C18.75 10.8211 20.4289 12.5 22.5 12.5Z" fill="url(#paint6_radial_353_14821)" fill-opacity="0.4"/>
<path d="M11.5 10.5C13.8472 10.5 15.75 8.59721 15.75 6.25C15.75 3.90279 13.8472 2 11.5 2C9.15279 2 7.25 3.90279 7.25 6.25C7.25 8.59721 9.15279 10.5 11.5 10.5Z" fill="url(#paint7_radial_353_14821)"/>
<path d="M11.5 10.5C13.8472 10.5 15.75 8.59721 15.75 6.25C15.75 3.90279 13.8472 2 11.5 2C9.15279 2 7.25 3.90279 7.25 6.25C7.25 8.59721 9.15279 10.5 11.5 10.5Z" fill="url(#paint8_radial_353_14821)" fill-opacity="0.6"/>
<path d="M11.5 10.5C13.8472 10.5 15.75 8.59721 15.75 6.25C15.75 3.90279 13.8472 2 11.5 2C9.15279 2 7.25 3.90279 7.25 6.25C7.25 8.59721 9.15279 10.5 11.5 10.5Z" fill="url(#paint9_radial_353_14821)" fill-opacity="0.5"/>
<path d="M14 14H23.4999C25.9851 14 27.9999 16.0147 27.9999 18.5V24.5001C27.9999 26.9853 25.9852 29 23.4999 29C21.0147 29 19 26.9853 19 24.5001V18.5C19 16.0147 16.9853 14 14.5 14H14Z" fill="url(#paint10_radial_353_14821)"/>
<path d="M3.99976 16.5C3.99976 14.0147 6.01447 12 8.49976 12H14.5C16.9853 12 19 14.0147 19 16.5V24.5C19 26.9853 21.0147 29 23.5 29H24H11.4998C7.35762 29 3.99976 25.6421 3.99976 21.5V16.5Z" fill="url(#paint11_radial_353_14821)"/>
<path d="M3.99976 16.5C3.99976 14.0147 6.01447 12 8.49976 12H14.5C16.9853 12 19 14.0147 19 16.5V24.5C19 26.9853 21.0147 29 23.5 29H24H11.4998C7.35762 29 3.99976 25.6421 3.99976 21.5V16.5Z" fill="url(#paint12_linear_353_14821)" fill-opacity="0.7"/>
<path d="M3.99976 16.5C3.99976 14.0147 6.01447 12 8.49976 12H14.5C16.9853 12 19 14.0147 19 16.5V24.5C19 26.9853 21.0147 29 23.5 29H24H11.4998C7.35762 29 3.99976 25.6421 3.99976 21.5V16.5Z" fill="url(#paint13_radial_353_14821)" fill-opacity="0.7"/>
<path d="M22.5 12.5C24.5711 12.5 26.25 10.8211 26.25 8.75C26.25 6.67893 24.5711 5 22.5 5C20.4289 5 18.75 6.67893 18.75 8.75C18.75 10.8211 20.4289 12.5 22.5 12.5Z" fill="url(#paint14_radial_353_14821)"/>
<path d="M22.5 12.5C24.5711 12.5 26.25 10.8211 26.25 8.75C26.25 6.67893 24.5711 5 22.5 5C20.4289 5 18.75 6.67893 18.75 8.75C18.75 10.8211 20.4289 12.5 22.5 12.5Z" fill="url(#paint15_radial_353_14821)" fill-opacity="0.46"/>
<path d="M22.5 12.5C24.5711 12.5 26.25 10.8211 26.25 8.75C26.25 6.67893 24.5711 5 22.5 5C20.4289 5 18.75 6.67893 18.75 8.75C18.75 10.8211 20.4289 12.5 22.5 12.5Z" fill="url(#paint16_radial_353_14821)" fill-opacity="0.4"/>
<path d="M11.5 10.5C13.8472 10.5 15.75 8.59721 15.75 6.25C15.75 3.90279 13.8472 2 11.5 2C9.15279 2 7.25 3.90279 7.25 6.25C7.25 8.59721 9.15279 10.5 11.5 10.5Z" fill="url(#paint17_radial_353_14821)"/>
<path d="M11.5 10.5C13.8472 10.5 15.75 8.59721 15.75 6.25C15.75 3.90279 13.8472 2 11.5 2C9.15279 2 7.25 3.90279 7.25 6.25C7.25 8.59721 9.15279 10.5 11.5 10.5Z" fill="url(#paint18_radial_353_14821)" fill-opacity="0.6"/>
<path d="M11.5 10.5C13.8472 10.5 15.75 8.59721 15.75 6.25C15.75 3.90279 13.8472 2 11.5 2C9.15279 2 7.25 3.90279 7.25 6.25C7.25 8.59721 9.15279 10.5 11.5 10.5Z" fill="url(#paint19_radial_353_14821)" fill-opacity="0.5"/>
<path d="M11.25 14H4.75C3.23122 14 2 15.2312 2 16.75V23.25C2 24.7688 3.23122 26 4.75 26H11.25C12.7688 26 14 24.7688 14 23.25V16.75C14 15.2312 12.7688 14 11.25 14Z" fill="url(#paint20_radial_353_14821)"/>
<path d="M11.25 14H4.75C3.23122 14 2 15.2312 2 16.75V23.25C2 24.7688 3.23122 26 4.75 26H11.25C12.7688 26 14 24.7688 14 23.25V16.75C14 15.2312 12.7688 14 11.25 14Z" fill="url(#paint21_radial_353_14821)" fill-opacity="0.7"/>
<path d="M10.4756 17.9421H8.73451V23.25H7.26549V17.9421H5.52441V16.75H10.4756V17.9421Z" fill="white"/>
<defs>
<radialGradient id="paint0_radial_353_14821" cx="0" cy="0" r="1" gradientUnits="userSpaceOnUse" gradientTransform="translate(26.3985 14.8027) scale(9.49463 23.4361)">
<stop stop-color="#A98AFF"/>
<stop offset="0.14" stop-color="#8C75FF"/>
<stop offset="0.565" stop-color="#5F50E2"/>
<stop offset="0.9" stop-color="#3C2CB8"/>
</radialGradient>
<radialGradient id="paint1_radial_353_14821" cx="0" cy="0" r="1" gradientUnits="userSpaceOnUse" gradientTransform="translate(4.59109 10.0613) rotate(68.2339) scale(23.92 24.1202)">
<stop stop-color="#85C2FF"/>
<stop offset="0.69" stop-color="#7588FF"/>
<stop offset="1" stop-color="#6459FE"/>
</radialGradient>
<linearGradient id="paint2_linear_353_14821" x1="13.1654" y1="11.2305" x2="13.1654" y2="28.7683" gradientUnits="userSpaceOnUse">
<stop offset="0.801159" stop-color="#6864F6" stop-opacity="0"/>
<stop offset="1" stop-color="#5149DE"/>
</linearGradient>
<radialGradient id="paint3_radial_353_14821" cx="0" cy="0" r="1" gradientUnits="userSpaceOnUse" gradientTransform="translate(18.1917 10.6459) rotate(113.242) scale(14.035 11.235)">
<stop stop-color="#BD96FF"/>
<stop offset="0.686685" stop-color="#BD96FF" stop-opacity="0"/>
</radialGradient>
<radialGradient id="paint4_radial_353_14821" cx="0" cy="0" r="1" gradientUnits="userSpaceOnUse" gradientTransform="translate(22.5 7.67857) rotate(-90) scale(7.5 9.46622)">
<stop offset="0.268201" stop-color="#6868F7"/>
<stop offset="1" stop-color="#3923B1"/>
</radialGradient>
<radialGradient id="paint5_radial_353_14821" cx="0" cy="0" r="1" gradientUnits="userSpaceOnUse" gradientTransform="translate(19.4007 6.90802) rotate(40.0516) scale(5.35972 7.75219)">
<stop offset="0.270711" stop-color="#A1D3FF"/>
<stop offset="0.813393" stop-color="#A1D3FF" stop-opacity="0"/>
</radialGradient>
<radialGradient id="paint6_radial_353_14821" cx="0" cy="0" r="1" gradientUnits="userSpaceOnUse" gradientTransform="translate(25.4867 6.77644) rotate(-41.6581) scale(6.38456 15.6618)">
<stop stop-color="#E3ACFD"/>
<stop offset="0.816041" stop-color="#9FA2FF" stop-opacity="0"/>
</radialGradient>
<radialGradient id="paint7_radial_353_14821" cx="0" cy="0" r="1" gradientUnits="userSpaceOnUse" gradientTransform="translate(11.5 5.03571) rotate(-90) scale(8.5 10.7284)">
<stop offset="0.268201" stop-color="#8282FF"/>
<stop offset="1" stop-color="#3923B1"/>
</radialGradient>
<radialGradient id="paint8_radial_353_14821" cx="0" cy="0" r="1" gradientUnits="userSpaceOnUse" gradientTransform="translate(7.98751 4.16243) rotate(40.0516) scale(6.07434 8.78582)">
<stop offset="0.270711" stop-color="#A1D3FF"/>
<stop offset="0.813393" stop-color="#A1D3FF" stop-opacity="0"/>
</radialGradient>
<radialGradient id="paint9_radial_353_14821" cx="0" cy="0" r="1" gradientUnits="userSpaceOnUse" gradientTransform="translate(14.8849 4.0133) rotate(-41.6581) scale(7.23583 17.7501)">
<stop stop-color="#E3ACFD"/>
<stop offset="0.816041" stop-color="#9FA2FF" stop-opacity="0"/>
</radialGradient>
<radialGradient id="paint10_radial_353_14821" cx="0" cy="0" r="1" gradientUnits="userSpaceOnUse" gradientTransform="translate(26.3985 14.8027) scale(9.49463 23.4361)">
<stop stop-color="#A98AFF"/>
<stop offset="0.14" stop-color="#8C75FF"/>
<stop offset="0.565" stop-color="#5F50E2"/>
<stop offset="0.9" stop-color="#3C2CB8"/>
</radialGradient>
<radialGradient id="paint11_radial_353_14821" cx="0" cy="0" r="1" gradientUnits="userSpaceOnUse" gradientTransform="translate(4.59109 10.0613) rotate(68.2339) scale(23.92 24.1202)">
<stop stop-color="#85C2FF"/>
<stop offset="0.69" stop-color="#7588FF"/>
<stop offset="1" stop-color="#6459FE"/>
</radialGradient>
<linearGradient id="paint12_linear_353_14821" x1="13.1654" y1="11.2305" x2="13.1654" y2="28.7683" gradientUnits="userSpaceOnUse">
<stop offset="0.801159" stop-color="#6864F6" stop-opacity="0"/>
<stop offset="1" stop-color="#5149DE"/>
</linearGradient>
<radialGradient id="paint13_radial_353_14821" cx="0" cy="0" r="1" gradientUnits="userSpaceOnUse" gradientTransform="translate(18.1917 10.6459) rotate(113.242) scale(14.035 11.235)">
<stop stop-color="#BD96FF"/>
<stop offset="0.686685" stop-color="#BD96FF" stop-opacity="0"/>
</radialGradient>
<radialGradient id="paint14_radial_353_14821" cx="0" cy="0" r="1" gradientUnits="userSpaceOnUse" gradientTransform="translate(22.5 7.67857) rotate(-90) scale(7.5 9.46622)">
<stop offset="0.268201" stop-color="#6868F7"/>
<stop offset="1" stop-color="#3923B1"/>
</radialGradient>
<radialGradient id="paint15_radial_353_14821" cx="0" cy="0" r="1" gradientUnits="userSpaceOnUse" gradientTransform="translate(19.4007 6.90802) rotate(40.0516) scale(5.35972 7.75219)">
<stop offset="0.270711" stop-color="#A1D3FF"/>
<stop offset="0.813393" stop-color="#A1D3FF" stop-opacity="0"/>
</radialGradient>
<radialGradient id="paint16_radial_353_14821" cx="0" cy="0" r="1" gradientUnits="userSpaceOnUse" gradientTransform="translate(25.4867 6.77644) rotate(-41.6581) scale(6.38456 15.6618)">
<stop stop-color="#E3ACFD"/>
<stop offset="0.816041" stop-color="#9FA2FF" stop-opacity="0"/>
</radialGradient>
<radialGradient id="paint17_radial_353_14821" cx="0" cy="0" r="1" gradientUnits="userSpaceOnUse" gradientTransform="translate(11.5 5.03571) rotate(-90) scale(8.5 10.7284)">
<stop offset="0.268201" stop-color="#8282FF"/>
<stop offset="1" stop-color="#3923B1"/>
</radialGradient>
<radialGradient id="paint18_radial_353_14821" cx="0" cy="0" r="1" gradientUnits="userSpaceOnUse" gradientTransform="translate(7.98751 4.16243) rotate(40.0516) scale(6.07434 8.78582)">
<stop offset="0.270711" stop-color="#A1D3FF"/>
<stop offset="0.813393" stop-color="#A1D3FF" stop-opacity="0"/>
</radialGradient>
<radialGradient id="paint19_radial_353_14821" cx="0" cy="0" r="1" gradientUnits="userSpaceOnUse" gradientTransform="translate(14.8849 4.0133) rotate(-41.6581) scale(7.23583 17.7501)">
<stop stop-color="#E3ACFD"/>
<stop offset="0.816041" stop-color="#9FA2FF" stop-opacity="0"/>
</radialGradient>
<radialGradient id="paint20_radial_353_14821" cx="0" cy="0" r="1" gradientUnits="userSpaceOnUse" gradientTransform="translate(2 14) rotate(45) scale(16.9706)">
<stop offset="0.046875" stop-color="#688EFF"/>
<stop offset="0.946875" stop-color="#230F94"/>
</radialGradient>
<radialGradient id="paint21_radial_353_14821" cx="0" cy="0" r="1" gradientUnits="userSpaceOnUse" gradientTransform="translate(8 21.2) rotate(90) scale(8.4 9.80266)">
<stop offset="0.570647" stop-color="#6965F6" stop-opacity="0"/>
<stop offset="1" stop-color="#8F8FFF"/>
</radialGradient>
</defs>
</svg>
