<svg width="32" height="32" viewBox="0 0 32 32" fill="none" xmlns="http://www.w3.org/2000/svg">
<g clip-path="url(#clip0_202_143565)">
<path d="M16 0C7.16344 0 0 7.16344 0 16V32H16C24.8366 32 32 24.8366 32 16C32 7.16344 24.8366 0 16 0ZM16 10.4C19.0928 10.4 21.6 12.9072 21.6 16C21.6 19.0928 19.0928 21.6 16 21.6H10.4V16C10.4 12.9072 12.9072 10.4 16 10.4Z" fill="url(#paint0_linear_202_143565)"/>
<path d="M32 16C32 24.8366 24.8366 32 16 32H0C6.84937e-08 26.2562 4.65624 21.6 10.4 21.6H16C19.0928 21.6 21.6 19.0928 21.6 16L32 16Z" fill="url(#paint1_linear_202_143565)"/>
<path d="M32 16C32 24.8366 24.8366 32 16 32H0C6.84937e-08 26.2562 4.65624 21.6 10.4 21.6H16C19.0928 21.6 21.6 19.0928 21.6 16L32 16Z" fill="url(#paint2_radial_202_143565)" fill-opacity="0.56"/>
<path d="M32 16C32 24.8366 24.8366 32 16 32H0C6.84937e-08 26.2562 4.65624 21.6 10.4 21.6H16C19.0928 21.6 21.6 19.0928 21.6 16L32 16Z" fill="url(#paint3_radial_202_143565)" fill-opacity="0.1"/>
<path d="M16 0C7.16344 0 0 7.16345 0 16V32C0.00146545 32 0.00292969 32 0.00439484 32C5.73462 31.9976 10.3813 27.361 10.3999 21.6345L10.4346 21.6H10.4V16C10.4 12.9072 12.9072 10.4 16 10.4C17.5622 10.4 18.975 11.0397 19.9908 12.0714L27.3554 4.72814C24.4567 1.80813 20.4395 0 16 0Z" fill="url(#paint4_linear_202_143565)"/>
<path d="M16 0C7.16344 0 0 7.16345 0 16V32C0.00146545 32 0.00292969 32 0.00439484 32C5.73462 31.9976 10.3813 27.361 10.3999 21.6345L10.4346 21.6H10.4V16C10.4 12.9072 12.9072 10.4 16 10.4C17.5622 10.4 18.975 11.0397 19.9908 12.0714L27.3554 4.72814C24.4567 1.80813 20.4395 0 16 0Z" fill="url(#paint5_radial_202_143565)"/>
</g>
<defs>
<linearGradient id="paint0_linear_202_143565" x1="19.52" y1="11.36" x2="14.24" y2="32.96" gradientUnits="userSpaceOnUse">
<stop stop-color="#9237E3"/>
<stop offset="1" stop-color="#48E6F3"/>
</linearGradient>
<linearGradient id="paint1_linear_202_143565" x1="10.4" y1="29.6" x2="24.48" y2="26.4" gradientUnits="userSpaceOnUse">
<stop stop-color="#51E6FF"/>
<stop offset="1" stop-color="#71D4FF" stop-opacity="0"/>
</linearGradient>
<radialGradient id="paint2_radial_202_143565" cx="0" cy="0" r="1" gradientUnits="userSpaceOnUse" gradientTransform="translate(5.6 25.2) rotate(34.5085) scale(7.7666 13.65)">
<stop/>
<stop offset="0.699824" stop-opacity="0"/>
</radialGradient>
<radialGradient id="paint3_radial_202_143565" cx="0" cy="0" r="1" gradientUnits="userSpaceOnUse" gradientTransform="translate(3.68 24) rotate(31.866) scale(13.9411 24.5019)">
<stop offset="0.328125"/>
<stop offset="0.604167" stop-opacity="0"/>
</radialGradient>
<linearGradient id="paint4_linear_202_143565" x1="6.56" y1="17.12" x2="14.72" y2="5.6" gradientUnits="userSpaceOnUse">
<stop stop-color="#6D05E8"/>
<stop offset="1" stop-color="#AB5ADD" stop-opacity="0"/>
</linearGradient>
<radialGradient id="paint5_radial_202_143565" cx="0" cy="0" r="1" gradientUnits="userSpaceOnUse" gradientTransform="translate(-2.72 9.92) rotate(-9.73945) scale(21.7535 57.193)">
<stop stop-color="#6D05E8"/>
<stop offset="1" stop-color="#6D05E8" stop-opacity="0"/>
</radialGradient>
<clipPath id="clip0_202_143565">
<rect width="32" height="32" fill="white"/>
</clipPath>
</defs>
</svg>
