<svg width="32" height="32" viewBox="0 0 32 32" fill="none" xmlns="http://www.w3.org/2000/svg">
<g clip-path="url(#clip0_3984_11026)">
<path d="M30.75 4H23.25C22.5596 4 22 4.55964 22 5.25V26.75C22 27.4404 22.5596 28 23.25 28H30.75C31.4404 28 32 27.4404 32 26.75V5.25C32 4.55964 31.4404 4 30.75 4Z" fill="#038387"/>
<path opacity="0.2" d="M29 4H28V28H29V4Z" fill="black"/>
<path d="M8 22.5V28.5C8 29.33 8.58 30 9.29 30H26.72C27.43 30 28.01 29.33 28.01 28.5V22.5C28.01 21.67 27.43 21 26.72 21H9.29C8.58 21 8 21.67 8 22.5Z" fill="#038387"/>
<path d="M26.7102 2H9.28024C8.57024 2 7.99023 2.57 7.99023 3.27V16H27.9902V3.27C27.9902 2.57 27.4102 2 26.7002 2H26.7102Z" fill="#37C6D0"/>
<path d="M28 16H8V23H28V16Z" fill="#1A9BA1"/>
<path opacity="0.1" d="M16.67 7H8V26H16.67C17.4 26 18 25.4 18 24.67V8.33C18 7.6 17.4 7 16.67 7Z" fill="black"/>
<path opacity="0.2" d="M15.67 8H8V27H15.67C16.4 27 17 26.4 17 25.67V9.33C17 8.6 16.4 8 15.67 8Z" fill="black"/>
<path opacity="0.2" d="M15.67 8H8V25H15.67C16.4 25 17 24.4 17 23.67V9.34C17 8.61 16.4 8.01 15.67 8.01V8Z" fill="black"/>
<path opacity="0.2" d="M14.67 8H8V25H14.67C15.4 25 16 24.4 16 23.67V9.34C16 8.61 15.4 8.01 14.67 8.01V8Z" fill="black"/>
<path d="M14.6698 24H1.33976C0.60976 24 0.00976562 23.4 0.00976562 22.67V9.34001C0.00976562 8.61001 0.60976 8.01001 1.33976 8.01001H14.6698C15.3998 8.01001 15.9998 8.61001 15.9998 9.34001V22.67C15.9998 23.4 15.3998 24 14.6698 24Z" fill="#038387"/>
<path d="M8.04004 11C9.24004 11 10.16 11.27 10.79 11.8C11.43 12.34 11.74 13.11 11.74 14.13C11.74 14.78 11.58 15.21 11.27 15.72C10.96 16.23 10.51 16.62 9.93004 16.91C9.35004 17.19 8.68004 17.33 7.91004 17.33H6.00004V20.99H4.04004V11H8.03004H8.04004ZM6.00004 15.68H7.69004C8.35004 15.68 8.84004 15.53 9.18004 15.24C9.52004 14.94 9.68004 14.78 9.68004 14.22C9.68004 13.12 9.04004 12.56 7.75004 12.56H6.00004V15.69V15.68Z" fill="#F9F7F7"/>
</g>
<defs>
<clipPath id="clip0_3984_11026">
<rect width="32" height="32" fill="white"/>
</clipPath>
</defs>
</svg>
