<svg viewBox="0 0 24 24" fill="none" xmlns="http://www.w3.org/2000/svg">
<g clip-path="url(#clip0_3984_11038)">
<path d="M23.03 3H16.97C16.4343 3 16 3.43428 16 3.97V20.03C16 20.5657 16.4343 21 16.97 21H23.03C23.5657 21 24 20.5657 24 20.03V3.97C24 3.43428 23.5657 3 23.03 3Z" fill="#038387"/>
<path opacity="0.2" d="M22 3H21V21H22V3Z" fill="black"/>
<path d="M6 17.37V21.87C6 22.49 6.43 22.99 6.96 22.99H20.03C20.56 22.99 20.99 22.49 20.99 21.87V17.37C20.99 16.75 20.56 16.25 20.03 16.25H6.96C6.43 16.25 6 16.75 6 17.37Z" fill="#038387"/>
<path d="M20.0398 1H6.96976C6.43976 1 6.00977 1.45 6.00977 2V12H21.0098V2C21.0098 1.45 20.5798 1 20.0498 1H20.0398Z" fill="#37C6D0"/>
<path d="M21 12H6V17H21V12Z" fill="#1A9BA1"/>
<path opacity="0.5" d="M13.83 6H6V17H6.06C6.02 17.12 6 17.24 6 17.38V20H13.6C14.31 20 15 19.29 15 18.65V7.17C15 6.53 14.47 6 13.83 6Z" fill="black"/>
<path opacity="0.1" d="M13.83 6H6V17H6.06C6.02 17.12 6 17.24 6 17.38V20H13.6C14.31 20 15 19.29 15 18.65V7.17C15 6.53 14.47 6 13.83 6Z" fill="black"/>
<path d="M12.83 5H1.17C0.523825 5 0 5.52383 0 6.17V17.83C0 18.4762 0.523825 19 1.17 19H12.83C13.4762 19 14 18.4762 14 17.83V6.17C14 5.52383 13.4762 5 12.83 5Z" fill="#038387"/>
<path d="M7.40022 8C8.36022 8 9.09021 8.21 9.60021 8.64C10.1102 9.07 10.3602 9.69 10.3602 10.5C10.3602 11.02 10.2302 11.71 9.98022 12.11C9.73022 12.52 9.37022 12.83 8.91022 13.06C8.45022 13.28 7.91022 13.4 7.30022 13.4H5.78021V16H4.22021V8H7.41022H7.40022ZM5.78021 12.01H7.12022C7.64022 12.01 8.04021 11.89 8.31021 11.66C8.58021 11.42 8.71021 11.02 8.71021 10.57C8.71021 9.69 8.20021 9.25 7.17021 9.25H5.78021V12.02V12.01Z" fill="white"/>
</g>
<defs>
<clipPath id="clip0_3984_11038">
<rect width="24" height="24" fill="white"/>
</clipPath>
</defs>
</svg>
