<svg viewBox="0 0 16 16" fill="none" xmlns="http://www.w3.org/2000/svg">
<g clip-path="url(#clip0_3984_11050)">
<path d="M14.92 1H11.08C10.4835 1 10 1.48353 10 2.08V13.92C10 14.5165 10.4835 15 11.08 15H14.92C15.5165 15 16 14.5165 16 13.92V2.08C16 1.48353 15.5165 1 14.92 1Z" fill="#038387"/>
<path opacity="0.2" d="M15 1H14V15H15V1Z" fill="black"/>
<path d="M14 8H3V12H14V8Z" fill="#1A9BA1"/>
<path d="M3 12H14V15C14 15.55 13.55 16 13 16H4C3.45 16 3 15.55 3 15V12Z" fill="#038387"/>
<path d="M4 0H13C13.55 0 14 0.45 14 1V8H3V1C3 0.45 3.45 0 4 0Z" fill="#37C6D0"/>
<path opacity="0.5" d="M10 4H3V14H9C10.1 14 11 13.1 11 12V5C11 4.45 10.55 4 10 4Z" fill="black"/>
<path opacity="0.1" d="M10 4H3V14H9C10.1 14 11 13.1 11 12V5C11 4.45 10.55 4 10 4Z" fill="black"/>
<path d="M9 3H1C0.447715 3 0 3.44772 0 4V12C0 12.5523 0.447715 13 1 13H9C9.55229 13 10 12.5523 10 12V4C10 3.44772 9.55229 3 9 3Z" fill="#038387"/>
<path d="M5.33999 4.99999C6.01999 4.99999 6.53999 5.15999 6.89999 5.47999C7.25999 5.79999 7.43999 6.26999 7.43999 6.86999C7.43999 7.25999 7.34999 7.60999 7.16999 7.90999C6.98999 8.20999 6.73999 8.44999 6.40999 8.61999C6.07999 8.78999 5.69999 8.86999 5.26999 8.86999H4.18999V10.99H3.07999V4.98999H5.33999V4.99999ZM4.18999 7.95999H5.14999C5.51999 7.95999 5.79999 7.86999 5.98999 7.68999C6.17999 7.50999 6.27999 7.24999 6.27999 6.90999C6.27999 6.24999 5.91999 5.91999 5.18999 5.91999H4.19999V7.94999L4.18999 7.95999Z" fill="white"/>
</g>
<defs>
<clipPath id="clip0_3984_11050">
<rect width="16" height="16" fill="white"/>
</clipPath>
</defs>
</svg>
