<svg width="48" height="48" viewBox="0 0 48 48" fill="none" xmlns="http://www.w3.org/2000/svg">
<g clip-path="url(#clip0_432_14)">
<mask id="mask0_432_14" style="mask-type:alpha" maskUnits="userSpaceOnUse" x="0" y="0" width="48" height="48">
<path d="M0 12L12 0H45.6C46.9255 0 48 1.07446 48 2.4V36L36 48H2.4C1.07446 48 0 46.9255 0 45.6V12Z" fill="#40E6E8"/>
</mask>
<g mask="url(#mask0_432_14)">
<path d="M36 48L48 36L-1.57361e-06 36L-5.24537e-07 44C-2.34843e-07 46.2091 1.79086 48 4 48L36 48Z" fill="#974B8B"/>
<path d="M0 36H12V48H2.4C1.07452 48 0 46.9255 0 45.6V36Z" fill="#773C6E"/>
<g filter="url(#filter0_d_432_14)">
<rect width="12" height="48" transform="matrix(4.37114e-08 1 1 -4.37114e-08 0 24)" fill="#D83B01"/>
</g>
<rect y="24" width="12" height="12" fill="#BF3207"/>
<g filter="url(#filter1_d_432_14)">
<rect width="12" height="48" transform="matrix(4.37114e-08 1 1 -4.37114e-08 0 12)" fill="#F18C0A"/>
</g>
<rect y="12" width="12" height="12" fill="#E25A01"/>
<g filter="url(#filter2_d_432_14)">
<path d="M12 1.29735e-06L0 12L48 12V2.4C48 1.07452 46.9255 -5.11792e-08 45.6 0L12 1.29735e-06Z" fill="#FED912"/>
</g>
</g>
</g>
<defs>
<filter id="filter0_d_432_14" x="-5" y="20" width="58" height="22" filterUnits="userSpaceOnUse" color-interpolation-filters="sRGB">
<feFlood flood-opacity="0" result="BackgroundImageFix"/>
<feColorMatrix in="SourceAlpha" type="matrix" values="0 0 0 0 0 0 0 0 0 0 0 0 0 0 0 0 0 0 127 0" result="hardAlpha"/>
<feOffset dy="1"/>
<feGaussianBlur stdDeviation="2.5"/>
<feColorMatrix type="matrix" values="0 0 0 0 0.592157 0 0 0 0 0.294118 0 0 0 0 0.545098 0 0 0 0.6 0"/>
<feBlend mode="multiply" in2="BackgroundImageFix" result="effect1_dropShadow_432_14"/>
<feBlend mode="normal" in="SourceGraphic" in2="effect1_dropShadow_432_14" result="shape"/>
</filter>
<filter id="filter1_d_432_14" x="-5" y="8" width="58" height="22" filterUnits="userSpaceOnUse" color-interpolation-filters="sRGB">
<feFlood flood-opacity="0" result="BackgroundImageFix"/>
<feColorMatrix in="SourceAlpha" type="matrix" values="0 0 0 0 0 0 0 0 0 0 0 0 0 0 0 0 0 0 127 0" result="hardAlpha"/>
<feOffset dy="1"/>
<feGaussianBlur stdDeviation="2.5"/>
<feColorMatrix type="matrix" values="0 0 0 0 0.74902 0 0 0 0 0.196078 0 0 0 0 0.027451 0 0 0 0.8 0"/>
<feBlend mode="multiply" in2="BackgroundImageFix" result="effect1_dropShadow_432_14"/>
<feBlend mode="normal" in="SourceGraphic" in2="effect1_dropShadow_432_14" result="shape"/>
</filter>
<filter id="filter2_d_432_14" x="-6" y="-5" width="60" height="24" filterUnits="userSpaceOnUse" color-interpolation-filters="sRGB">
<feFlood flood-opacity="0" result="BackgroundImageFix"/>
<feColorMatrix in="SourceAlpha" type="matrix" values="0 0 0 0 0 0 0 0 0 0 0 0 0 0 0 0 0 0 127 0" result="hardAlpha"/>
<feOffset dy="1"/>
<feGaussianBlur stdDeviation="3"/>
<feColorMatrix type="matrix" values="0 0 0 0 0.964706 0 0 0 0 0.619608 0 0 0 0 0.0745098 0 0 0 0.8 0"/>
<feBlend mode="multiply" in2="BackgroundImageFix" result="effect1_dropShadow_432_14"/>
<feBlend mode="normal" in="SourceGraphic" in2="effect1_dropShadow_432_14" result="shape"/>
</filter>
<clipPath id="clip0_432_14">
<rect width="48" height="48" fill="white"/>
</clipPath>
</defs>
</svg>
